<?xml version="1.0" standalone="no"?>
<!DOCTYPE svg PUBLIC "-//W3C//DTD SVG 1.1//EN" "http://www.w3.org/Graphics/SVG/1.1/DTD/svg11.dtd" >
<svg xmlns="http://www.w3.org/2000/svg" xmlns:xlink="http://www.w3.org/1999/xlink" version="1.1">
<metadata>
Created by FontForge 20170731 at Wed May 29 12:20:20 2013
 By Aleksey,,,
Copyright (c) 2013 by Hannes von Doehren. All rights reserved.
</metadata>
<defs>
<font id="NiveauGroteskBlack" horiz-adv-x="520" >
  <font-face 
    font-family="Niveau Grotesk Black"
    font-weight="900"
    font-stretch="normal"
    units-per-em="1000"
    panose-1="2 0 0 0 0 0 0 0 0 0"
    ascent="750"
    descent="-250"
    x-height="504"
    cap-height="680"
    bbox="-101 -215 1261 921"
    underline-thickness="50"
    underline-position="-200"
    unicode-range="U+0020-FB02"
  />
<missing-glyph horiz-adv-x="833" 
d="M69 49l301 301l-301 301l20 20l301 -301l301 301l20 -20l-301 -301l301 -301l-20 -20l-301 301l-301 -301z" />
    <glyph glyph-name="fi" unicode="fi" horiz-adv-x="600" 
d="M337 479v-139h-85v-340h-163v340h-67v139h67v31q0 93 53.5 141.5t146.5 48.5q25 0 48 -5v-162q-16 8 -42 8q-19 0 -31 -12t-12 -30v-20h85zM549 504v-504h-163v504h163zM374 645q0 39 27 66t66 27q40 0 66.5 -27t26.5 -66q0 -40 -26.5 -66.5t-66.5 -26.5t-66.5 26.5
t-26.5 66.5z" />
    <glyph glyph-name="fl" unicode="fl" horiz-adv-x="599" 
d="M337 479v-139h-85v-340h-163v340h-67v139h67v31q0 93 53.5 141.5t146.5 48.5q25 0 48 -5v-162q-16 8 -42 8q-19 0 -31 -12t-12 -30v-20h85zM548 690v-690h-163v690h163z" />
    <glyph glyph-name=".notdef" horiz-adv-x="833" 
d="M69 49l301 301l-301 301l20 20l301 -301l301 301l20 -20l-301 -301l301 -301l-20 -20l-301 301l-301 -301z" />
    <glyph glyph-name=".null" horiz-adv-x="0" 
 />
    <glyph glyph-name="nonmarkingreturn" horiz-adv-x="333" 
 />
    <glyph glyph-name="space" unicode=" " horiz-adv-x="206" 
 />
    <glyph glyph-name="exclam" unicode="!" horiz-adv-x="284" 
d="M197 246h-110l-40 434h190zM34 97q0 47 30.5 77.5t76.5 30.5q47 0 77.5 -30.5t30.5 -77.5q0 -46 -30.5 -76.5t-77.5 -30.5t-77 30t-30 77z" />
    <glyph glyph-name="quotedbl" unicode="&#x22;" horiz-adv-x="481" 
d="M203 434h-150l-10 246h170zM428 434h-150l-10 246h170z" />
    <glyph glyph-name="numbersign" unicode="#" horiz-adv-x="667" 
d="M302 0l51 174h-130l-52 -174h-109l51 174h-81v90h108l42 141h-120v90h147l55 185h110l-55 -185h130l55 185h110l-55 -185h76v-90h-103l-42 -141h115v-90h-142l-52 -174h-109zM292 405l-42 -141h130l42 141h-130z" />
    <glyph glyph-name="dollar" unicode="$" horiz-adv-x="497" 
d="M429 663v-177q-28 18 -69.5 32t-76.5 14q-66 0 -66 -43q0 -24 44 -49l77 -44q127 -73 127 -194q0 -80 -47.5 -138t-139.5 -71v-110h-55v106q-94 1 -169 32v185q30 -23 77 -40.5t90 -17.5q63 0 63 44q0 24 -45 49l-81 46q-68 39 -95.5 85.5t-27.5 110.5q0 74 45 131
t143 72v92h55v-87h6q77 0 145 -28z" />
    <glyph glyph-name="percent" unicode="%" horiz-adv-x="914" 
d="M249 0l302 680h120l-303 -680h-119zM198 578q-24 0 -38 -13.5t-14 -36.5v-110q0 -23 14 -37t38 -14t38 14t14 37v110q0 23 -14 36.5t-38 13.5zM198 690q72 0 119.5 -45t47.5 -114v-116q0 -70 -47.5 -115t-119.5 -45t-119.5 45t-47.5 115v116q0 69 47.5 114t119.5 45z
M716 312q-24 0 -38 -13.5t-14 -36.5v-110q0 -23 14 -37t38 -14t38 14t14 37v110q0 23 -14 36.5t-38 13.5zM716 424q72 0 119.5 -45t47.5 -114v-116q0 -70 -47.5 -115t-119.5 -45t-119.5 45t-47.5 115v116q0 69 47.5 114t119.5 45z" />
    <glyph glyph-name="ampersand" unicode="&#x26;" horiz-adv-x="701" 
d="M26 206q0 144 148 208l-4 6q-39 48 -39 101q0 73 53 121t137 48q85 0 136 -47.5t51 -125.5q0 -108 -107 -162l60 -70l181 191v-222l-82 -87l142 -167h-203l-46 58q-85 -69 -188 -69q-113 0 -176 63t-63 154zM265 144q44 0 92 37l-93 118q-72 -31 -72 -81q0 -30 19.5 -52
t53.5 -22zM305 469l4 -5q43 20 43 46q0 35 -31 35q-15 0 -24.5 -9.5t-9.5 -24.5q0 -16 18 -42z" />
    <glyph glyph-name="quotesingle" unicode="'" horiz-adv-x="256" 
d="M203 434h-150l-10 246h170z" />
    <glyph glyph-name="parenleft" unicode="(" horiz-adv-x="277" 
d="M151 242q0 -228 113 -392l-89 -56q-67 84 -108.5 203t-41.5 245q0 127 41.5 246t108.5 203l89 -56q-113 -164 -113 -393z" />
    <glyph glyph-name="parenright" unicode=")" horiz-adv-x="277" 
d="M126 243q0 228 -113 392l89 56q67 -84 108.5 -203t41.5 -245q0 -127 -41.5 -246t-108.5 -203l-89 56q113 164 113 393z" />
    <glyph glyph-name="asterisk" unicode="*" horiz-adv-x="352" 
d="M56 635l94 -54v109h47v-108l93 54l24 -41l-94 -55l94 -53l-24 -41l-93 53v-106h-47v106l-93 -53l-24 41l92 53l-92 54z" />
    <glyph glyph-name="plus" unicode="+" 
d="M31 222v125h160v167h135v-167h162v-125h-162v-167h-135v167h-160z" />
    <glyph glyph-name="comma" unicode="," horiz-adv-x="275" 
d="M180 -108h-150l27 297h180z" />
    <glyph glyph-name="hyphen" unicode="-" horiz-adv-x="371" 
d="M324 208h-277v154h277v-154z" />
    <glyph glyph-name="period" unicode="." horiz-adv-x="277" 
d="M31 97q0 47 30.5 77.5t76.5 30.5t77 -30.5t31 -77.5q0 -46 -30.5 -76.5t-77.5 -30.5q-46 0 -76.5 30t-30.5 77z" />
    <glyph glyph-name="slash" unicode="/" horiz-adv-x="460" 
d="M19 0l302 680h120l-303 -680h-119z" />
    <glyph glyph-name="zero" unicode="0" horiz-adv-x="592" 
d="M296 525q-40 0 -62.5 -25t-22.5 -67v-186q0 -41 22.5 -66.5t62.5 -25.5t62.5 25.5t22.5 66.5v186q0 42 -22.5 67t-62.5 25zM296 691q110 0 182.5 -71.5t72.5 -181.5v-195q0 -110 -72.5 -182t-182.5 -72t-182.5 72t-72.5 182v195q0 110 72.5 181.5t182.5 71.5z" />
    <glyph glyph-name="one" unicode="1" horiz-adv-x="488" 
d="M30 0v164h147v352h-117v164h287v-516h127v-164h-444z" />
    <glyph glyph-name="two" unicode="2" horiz-adv-x="473" 
d="M38 0v144l176 220q43 52 43 90q0 31 -17 49t-47 18q-78 0 -142 -59v189q62 40 155 40q114 0 170 -60t56 -144q0 -103 -67 -189l-105 -134h167v-164h-389z" />
    <glyph glyph-name="three" unicode="3" horiz-adv-x="466" 
d="M94 266v164h92q23 0 38.5 12t15.5 32q0 21 -16 34t-43 13q-74 0 -129 -39v182q64 27 136 27q103 0 165 -55t62 -138q0 -105 -77 -149q95 -50 95 -160q0 -84 -67 -142t-170 -58q-78 0 -153 29v190q57 -49 142 -49q31 0 52 15.5t21 40.5q0 51 -71 51h-93z" />
    <glyph glyph-name="four" unicode="4" horiz-adv-x="573" 
d="M540 123h-76v-123h-170v123h-279v144l279 413h170v-393h76v-164zM193 287h101v157z" />
    <glyph glyph-name="five" unicode="5" horiz-adv-x="494" 
d="M442 516h-189l-8 -64q98 -8 154.5 -67t56.5 -154q0 -118 -68.5 -180t-180.5 -62q-94 0 -162 34v203q71 -67 152 -67q37 0 60.5 21t23.5 51q0 22 -9.5 35.5t-28.5 19.5t-36.5 7.5t-45.5 1.5h-91l30 385h342v-164z" />
    <glyph glyph-name="six" unicode="6" horiz-adv-x="550" 
d="M454 680l-136 -211q87 -14 145.5 -75t58.5 -157q0 -106 -71 -177t-176 -71q-106 0 -177 71t-71 177q0 75 43 147l180 296h204zM350 237q0 32 -21.5 54.5t-53.5 22.5t-54 -22.5t-22 -54.5t22 -55t54 -23t53.5 22.5t21.5 55.5z" />
    <glyph glyph-name="seven" unicode="7" horiz-adv-x="451" 
d="M432 536l-201 -536h-194l207 516h-216v164h404v-144z" />
    <glyph glyph-name="eight" unicode="8" horiz-adv-x="522" 
d="M56 495q0 85 58.5 140.5t145.5 55.5q88 0 147 -55.5t59 -140.5q0 -82 -59 -130q83 -50 83 -157q0 -96 -66 -157.5t-164 -61.5t-163 61.5t-65 157.5q0 107 82 158q-58 45 -58 129zM192 210q0 -30 19.5 -50.5t48.5 -20.5q30 0 50 20.5t20 50.5q0 31 -20 52t-50 21
q-29 0 -48.5 -21t-19.5 -52zM215 494q0 -21 12.5 -34.5t33.5 -13.5t33.5 13.5t12.5 34.5t-12.5 34t-33.5 13t-33.5 -13t-12.5 -34z" />
    <glyph glyph-name="nine" unicode="9" horiz-adv-x="550" 
d="M96 0l133 201q-86 15 -143.5 80t-57.5 162q0 106 71 177t176 71q106 0 177 -71t71 -177q0 -75 -43 -147l-180 -296h-204zM200 443q0 -32 21.5 -54.5t53.5 -22.5t54 22.5t22 54.5t-22 55t-54 23t-53.5 -22.5t-21.5 -55.5z" />
    <glyph glyph-name="colon" unicode=":" horiz-adv-x="279" 
d="M43 86q0 42 27 69.5t69 27.5t69.5 -27.5t27.5 -69.5t-27.5 -69t-69.5 -27t-69 27t-27 69zM43 387q0 42 27 69.5t69 27.5t69.5 -27.5t27.5 -69.5t-27.5 -69t-69.5 -27t-69 27t-27 69z" />
    <glyph glyph-name="semicolon" unicode=";" horiz-adv-x="278" 
d="M169 -104h-135l25 267h162zM49 387q0 42 27 69.5t69 27.5t69.5 -27.5t27.5 -69.5t-27.5 -69t-69.5 -27t-69 27t-27 69z" />
    <glyph glyph-name="less" unicode="&#x3c;" 
d="M21 222v125l457 173v-129l-297 -107l297 -106v-128z" />
    <glyph glyph-name="equal" unicode="=" 
d="M31 460h457v-125h-457v125zM31 235h457v-125h-457v125z" />
    <glyph glyph-name="greater" unicode="&#x3e;" 
d="M498 347v-125l-457 -172v128l297 106l-297 107v129z" />
    <glyph glyph-name="question" unicode="?" horiz-adv-x="435" 
d="M269 246h-165q0 55 8.5 81t42.5 52l45 35q29 23 29 56q0 50 -67 50q-29 0 -66 -13.5t-60 -32.5v192q57 24 142 24q114 0 170 -60t56 -144q0 -80 -63 -138l-49 -45q-15 -14 -19 -24t-4 -33zM79 97q0 47 30.5 77.5t76.5 30.5t77 -30.5t31 -77.5q0 -46 -30.5 -76.5
t-77.5 -30.5q-46 0 -76.5 30t-30.5 77z" />
    <glyph glyph-name="at" unicode="@" horiz-adv-x="797" 
d="M403 -95q-158 0 -261.5 103.5t-103.5 261.5t103.5 261.5t261.5 103.5t261.5 -97t103.5 -245q0 -92 -47 -147t-111 -55q-71 0 -100 54q-45 -60 -127 -60q-78 0 -127 53t-49 133t49 133t127 53q65 0 110 -40v30h80v-219q0 -59 44 -59q27 0 46 33t19 91q0 112 -79.5 187.5
t-199.5 75.5t-199.5 -82.5t-79.5 -203.5t79.5 -203.5t199.5 -82.5q109 0 187 68l48 -61q-99 -86 -235 -86zM293 271q0 -45 27.5 -76.5t71.5 -31.5q45 0 72.5 31t27.5 77t-27.5 76.5t-72.5 30.5q-44 0 -71.5 -31t-27.5 -76z" />
    <glyph glyph-name="A" unicode="A" horiz-adv-x="668" 
d="M489 0l-42 123h-227l-41 -123h-190l250 680h190l250 -680h-190zM334 458l-58 -171h116z" />
    <glyph glyph-name="B" unicode="B" horiz-adv-x="588" 
d="M68 0v680h254q96 0 156 -51t60 -132q0 -104 -73 -148q91 -50 91 -159q0 -83 -64 -136.5t-166 -53.5h-258zM381 215q0 51 -55 51h-88v-102h88q55 0 55 51zM363 473q0 43 -42 43h-83v-86h83q42 0 42 43z" />
    <glyph glyph-name="C" unicode="C" horiz-adv-x="564" 
d="M521 210v-193q-67 -28 -143 -28q-149 0 -249.5 101t-100.5 250t100.5 250t249.5 101q76 0 143 -28v-195q-56 53 -143 53q-74 0 -124.5 -53t-50.5 -128q0 -76 50.5 -128.5t124.5 -52.5q88 0 143 51z" />
    <glyph glyph-name="D" unicode="D" horiz-adv-x="694" 
d="M68 0v680h259q155 0 246 -94.5t91 -245.5t-91 -245.5t-246 -94.5h-259zM325 516h-87v-352h87q79 0 121.5 49t42.5 127t-42.5 127t-121.5 49z" />
    <glyph glyph-name="E" unicode="E" horiz-adv-x="517" 
d="M466 0h-398v680h398v-164h-228v-91h208v-164h-208v-97h228v-164z" />
    <glyph glyph-name="F" unicode="F" horiz-adv-x="507" 
d="M446 231h-208v-231h-170v680h398v-164h-228v-121h208v-164z" />
    <glyph glyph-name="G" unicode="G" horiz-adv-x="715" 
d="M561 664v-184q-77 41 -183 41q-75 0 -125 -51t-50 -130q0 -76 48 -128.5t121 -52.5q64 0 103 35t39 76v6h-143v154h318q10 -45 10 -104q0 -142 -86.5 -239.5t-245.5 -97.5q-147 0 -243 100.5t-96 250.5t99.5 250.5t250.5 100.5q113 0 183 -27z" />
    <glyph glyph-name="H" unicode="H" horiz-adv-x="748" 
d="M510 0v261h-272v-261h-170v680h170v-255h272v255h170v-680h-170z" />
    <glyph glyph-name="I" unicode="I" horiz-adv-x="306" 
d="M68 0v680h170v-680h-170z" />
    <glyph glyph-name="J" unicode="J" horiz-adv-x="449" 
d="M216 680h170v-444q0 -123 -51.5 -185t-162.5 -62q-41 0 -83 10t-65 26v185q54 -51 121 -51q71 0 71 82v439z" />
    <glyph glyph-name="K" unicode="K" horiz-adv-x="583" 
d="M68 0v680h170v-246l136 246h197l-171 -279l181 -401h-198l-106 255l-39 -63v-192h-170z" />
    <glyph glyph-name="L" unicode="L" horiz-adv-x="484" 
d="M466 0h-398v680h170v-516h228v-164z" />
    <glyph glyph-name="M" unicode="M" horiz-adv-x="879" 
d="M513 0h-147l-128 377v-377h-170v680h210l162 -463l162 463h209v-680h-170v378z" />
    <glyph glyph-name="N" unicode="N" horiz-adv-x="715" 
d="M477 0l-235 346v-346h-170v591l-47 78v11h200l252 -384v384h170v-680h-170z" />
    <glyph glyph-name="O" unicode="O" horiz-adv-x="756" 
d="M28 340q0 149 100.5 250t249.5 101t249.5 -101t100.5 -250t-100.5 -250t-249.5 -101t-249.5 101t-100.5 250zM203 340q0 -76 50.5 -128.5t124.5 -52.5t124.5 53t50.5 128t-50.5 128t-124.5 53t-124.5 -53t-50.5 -128z" />
    <glyph glyph-name="P" unicode="P" horiz-adv-x="569" 
d="M68 0v680h248q103 0 166.5 -59.5t63.5 -161.5t-63.5 -161.5t-166.5 -59.5h-78v-238h-170zM371 459q0 27 -16 42t-41 15h-76v-114h76q25 0 41 15t16 42z" />
    <glyph glyph-name="Q" unicode="Q" horiz-adv-x="764" 
d="M28 340q0 149 100.5 250t249.5 101t249.5 -101t100.5 -250q0 -110 -57 -197l61 -60l-116 -116l-65 65q-78 -43 -173 -43q-149 0 -249.5 101t-100.5 250zM203 340q0 -76 50.5 -128.5t124.5 -52.5q24 0 41 4l-74 75l116 117l80 -81q12 30 12 66q0 75 -50.5 128t-124.5 53
t-124.5 -53t-50.5 -128z" />
    <glyph glyph-name="R" unicode="R" horiz-adv-x="603" 
d="M68 0v680h253q104 0 167 -53t63 -149q0 -68 -32.5 -111.5t-82.5 -59.5q120 -64 141 -307h-177q-35 238 -145 238h-17v-238h-170zM376 459q0 27 -15.5 42t-40.5 15h-82v-114h82q25 0 40.5 15t15.5 42z" />
    <glyph glyph-name="S" unicode="S" horiz-adv-x="498" 
d="M431 663v-177q-28 18 -69.5 32t-76.5 14q-66 0 -66 -43q0 -24 44 -49l77 -44q127 -73 127 -194q0 -91 -60 -152t-177 -61q-94 0 -174 32v185q30 -23 77 -40.5t90 -17.5q63 0 63 44q0 24 -45 49l-81 46q-68 39 -95.5 85.5t-27.5 110.5q0 39 13 74.5t40.5 66.5t78 49
t117.5 18q77 0 145 -28z" />
    <glyph glyph-name="T" unicode="T" horiz-adv-x="526" 
d="M178 0v516h-157v164h484v-164h-157v-516h-170z" />
    <glyph glyph-name="U" unicode="U" horiz-adv-x="654" 
d="M423 680h170v-418q0 -129 -71.5 -201t-194.5 -72t-194.5 72t-71.5 201v418h170v-432q0 -42 26 -68t70 -26t70 26t26 68v432z" />
    <glyph glyph-name="V" unicode="V" horiz-adv-x="668" 
d="M239 0l-250 680h190l155 -484l155 484h190l-250 -680h-190z" />
    <glyph glyph-name="W" unicode="W" horiz-adv-x="954" 
d="M177 0l-175 680h190l94 -468l118 380l-23 88h170l118 -468l93 468h190l-175 -680h-190l-100 361l-120 -361h-190z" />
    <glyph glyph-name="X" unicode="X" horiz-adv-x="620" 
d="M310 221l-112 -221h-199l196 348l-186 332h200l101 -206l101 206h200l-186 -332l196 -348h-199z" />
    <glyph glyph-name="Y" unicode="Y" horiz-adv-x="576" 
d="M203 0v290l-215 390h190l110 -222l111 222h190l-216 -392v-288h-170z" />
    <glyph glyph-name="Z" unicode="Z" horiz-adv-x="517" 
d="M475 536l-231 -372h231v-164h-438v144l223 372h-213v164h428v-144z" />
    <glyph glyph-name="bracketleft" unicode="[" horiz-adv-x="297" 
d="M63 690h218v-95h-113v-705h113v-95h-218v895z" />
    <glyph glyph-name="backslash" unicode="\" horiz-adv-x="460" 
d="M139 680l302 -680h-119l-303 680h120z" />
    <glyph glyph-name="bracketright" unicode="]" horiz-adv-x="297" 
d="M234 -205h-218v95h113v705h-113v95h218v-895z" />
    <glyph glyph-name="asciicircum" unicode="^" horiz-adv-x="448" 
d="M224 708l195 -155l-79 -93l-117 91l-116 -92l-78 94z" />
    <glyph glyph-name="underscore" unicode="_" horiz-adv-x="494" 
d="M447 -130h-400v100h400v-100z" />
    <glyph glyph-name="grave" unicode="`" horiz-adv-x="600" 
d="M198 696h132l72 -147h-117z" />
    <glyph glyph-name="a" unicode="a" horiz-adv-x="492" 
d="M75 335v152q69 27 147 27q224 0 224 -220v-294h-163v29q-38 -40 -103 -40q-79 0 -120 47.5t-41 114.5q0 68 45 114t119 46q58 0 100 -26v13q0 72 -81 72q-65 0 -127 -35zM179 151q0 -19 14.5 -32t36.5 -13t36.5 13t14.5 32t-14.5 32t-36.5 13t-36.5 -13t-14.5 -32z" />
    <glyph glyph-name="b" unicode="b" horiz-adv-x="609" 
d="M214 47v-47h-163v690h163v-234q52 58 137 58q104 0 169 -74.5t65 -187.5t-65 -188t-168 -75q-85 0 -138 58zM214 252q0 -42 29 -72.5t73 -30.5q43 0 71.5 30.5t28.5 72.5t-28.5 72t-71.5 30q-44 0 -73 -30t-29 -72z" />
    <glyph glyph-name="c" unicode="c" horiz-adv-x="432" 
d="M394 178v-170q-40 -19 -103 -19q-119 0 -193 75t-74 188q0 114 73.5 188t193.5 74q62 0 103 -18v-171q-46 30 -103 30q-44 0 -73 -30t-29 -73t29 -73.5t73 -30.5q57 0 103 30z" />
    <glyph glyph-name="d" unicode="d" horiz-adv-x="609" 
d="M395 0v47q-55 -58 -137 -58q-104 0 -169 75t-65 188t65 187.5t170 74.5q83 0 136 -58v234h163v-690h-163zM395 252q0 42 -29 72t-72 30q-44 0 -73 -30t-29 -72t29.5 -72.5t72.5 -30.5t72 30.5t29 72.5z" />
    <glyph glyph-name="e" unicode="e" horiz-adv-x="529" 
d="M499 203h-312q9 -32 39 -50t74 -18q95 0 166 40v-153q-69 -33 -180 -33q-115 0 -188.5 72.5t-73.5 190.5q0 112 71.5 187t180.5 75q106 0 169 -68.5t63 -167.5q0 -43 -9 -75zM275 380q-33 0 -58 -16.5t-31 -39.5h167q-2 25 -23.5 40.5t-54.5 15.5z" />
    <glyph glyph-name="f" unicode="f" horiz-adv-x="352" 
d="M338 479v-139h-85v-340h-163v340h-67v139h67v31q0 93 53.5 141.5t146.5 48.5q25 0 48 -5v-162q-16 8 -42 8q-19 0 -31 -12t-12 -30v-20h85z" />
    <glyph glyph-name="g" unicode="g" horiz-adv-x="617" 
d="M401 504h163v-432q0 -144 -74.5 -215.5t-214.5 -71.5q-101 0 -165 35v166q77 -49 165 -49q57 0 91.5 29.5t34.5 82.5v13q-58 -58 -144 -58q-102 0 -167 72t-65 182t65 183t166 73q89 0 145 -61v51zM391 259q0 40 -27.5 68t-68.5 28t-68.5 -28t-27.5 -68t27.5 -68
t68.5 -28t68.5 28t27.5 68z" />
    <glyph glyph-name="h" unicode="h" horiz-adv-x="556" 
d="M214 690v-242q47 66 123 66q77 0 124.5 -52t47.5 -132v-330h-163v282q0 34 -18 53.5t-47 19.5q-30 0 -48 -17.5t-19 -49.5v-288h-163v690h163z" />
    <glyph glyph-name="i" unicode="i" horiz-adv-x="265" 
d="M214 504v-504h-163v504h163zM39 645q0 39 27 66t66 27q40 0 66.5 -27t26.5 -66q0 -40 -26.5 -66.5t-66.5 -26.5t-66.5 26.5t-26.5 66.5z" />
    <glyph glyph-name="j" unicode="j" horiz-adv-x="265" 
d="M51 -17v521h163v-522q0 -96 -49.5 -146.5t-135.5 -50.5q-29 0 -46 5v163q15 -8 30 -8q38 0 38 38zM40 645q0 39 27 66t67 27q39 0 66 -27t27 -66q0 -40 -26.5 -66.5t-66.5 -26.5t-67 26.5t-27 66.5z" />
    <glyph glyph-name="k" unicode="k" horiz-adv-x="511" 
d="M51 0v690h163v-352l106 166h190l-144 -205l142 -299h-188l-76 183l-30 -48v-135h-163z" />
    <glyph glyph-name="l" unicode="l" horiz-adv-x="265" 
d="M214 690v-690h-163v690h163z" />
    <glyph glyph-name="m" unicode="m" horiz-adv-x="851" 
d="M214 504v-56q46 66 123 66q105 0 151 -85q46 85 145 85q72 0 122 -53t50 -131v-330h-163v281q0 34 -17.5 54t-47.5 20t-49 -20t-19 -54v-281h-163v281q0 34 -17.5 54t-46.5 20q-30 0 -48.5 -18t-19.5 -49v-288h-163v504h163z" />
    <glyph glyph-name="n" unicode="n" horiz-adv-x="556" 
d="M214 504v-56q45 66 123 66q77 0 124.5 -52t47.5 -132v-330h-163v282q0 34 -18 53.5t-48 19.5q-29 0 -47 -17.5t-19 -49.5v-288h-163v504h163z" />
    <glyph glyph-name="o" unicode="o" horiz-adv-x="570" 
d="M23 252q0 111 75.5 186.5t186.5 75.5t186.5 -75.5t75.5 -186.5t-75.5 -187t-186.5 -76t-186.5 76t-75.5 187zM188 252q0 -43 28 -73.5t69 -30.5q42 0 69.5 30.5t27.5 73.5t-27.5 73t-69.5 30q-41 0 -69 -30t-28 -73z" />
    <glyph glyph-name="p" unicode="p" horiz-adv-x="609" 
d="M214 504v-58q47 68 137 68q103 0 168.5 -75t65.5 -187q0 -113 -65.5 -188t-169.5 -75q-84 0 -136 58v-252h-163v709h163zM214 252q0 -42 29 -72.5t73 -30.5q43 0 71.5 30.5t28.5 72.5t-28.5 72t-71.5 30q-44 0 -73 -30t-29 -72z" />
    <glyph glyph-name="q" unicode="q" horiz-adv-x="609" 
d="M395 456v48h163v-709h-163v252q-55 -58 -135 -58q-105 0 -170.5 75t-65.5 188t65.5 187.5t169.5 74.5q83 0 136 -58zM395 252q0 42 -29 72t-72 30q-44 0 -73 -30t-29 -72t29.5 -72.5t72.5 -30.5t72 30.5t29 72.5z" />
    <glyph glyph-name="r" unicode="r" horiz-adv-x="379" 
d="M214 504v-48q42 58 114 58q22 0 38 -3v-172q-37 16 -80 16q-29 0 -49.5 -18t-22.5 -49v-288h-163v504h163z" />
    <glyph glyph-name="s" unicode="s" horiz-adv-x="396" 
d="M342 500v-157q-57 31 -108 31q-34 0 -34 -23q0 -12 22 -26l65 -37q81 -49 81 -139q0 -70 -49.5 -115t-141.5 -45q-73 0 -131 22v160q17 -15 55 -29.5t64 -14.5q35 0 35 25q0 17 -25 31l-71 41q-72 41 -72 133q0 71 52 114t143 43q62 0 115 -14z" />
    <glyph glyph-name="t" unicode="t" horiz-adv-x="344" 
d="M253 0h-163v365h-68v139h78v103l153 33v-136h78v-139h-78v-365z" />
    <glyph glyph-name="u" unicode="u" horiz-adv-x="559" 
d="M343 0v55q-43 -66 -123 -66q-76 0 -123.5 52t-47.5 132v331h163v-282q0 -34 17.5 -54t47.5 -20q29 0 46.5 18t19.5 49v289h163v-504h-163z" />
    <glyph glyph-name="v" unicode="v" horiz-adv-x="532" 
d="M-4 504h171l98 -301l101 301h171l-186 -504h-170z" />
    <glyph glyph-name="w" unicode="w" horiz-adv-x="797" 
d="M3 504h169l75 -306l74 234l-25 72h161l97 -306l72 306h169l-147 -504h-170l-80 245l-78 -245h-171z" />
    <glyph glyph-name="x" unicode="x" 
d="M260 132l-73 -132h-189l164 252l-164 252h189l73 -131l73 131h189l-162 -252l162 -252h-189z" />
    <glyph glyph-name="y" unicode="y" horiz-adv-x="536" 
d="M63 -205l116 243l-181 466h183l87 -260l96 260h183l-296 -709h-188z" />
    <glyph glyph-name="z" unicode="z" horiz-adv-x="427" 
d="M390 375l-164 -236h164v-139h-357v129l158 236h-147v139h346v-129z" />
    <glyph glyph-name="braceleft" unicode="{" horiz-adv-x="325" 
d="M-2 195v95h30q81 0 81 93v152q0 91 33.5 123t112.5 32h53v-95h-27q-36 0 -51.5 -15t-15.5 -54v-169q0 -94 -76 -115q76 -21 76 -115v-166q0 -40 15.5 -55.5t51.5 -15.5h27v-95h-51q-81 0 -114.5 32.5t-33.5 126.5v147q0 94 -81 94h-30z" />
    <glyph glyph-name="bar" unicode="|" horiz-adv-x="231" 
d="M168 690v-895h-105v895h105z" />
    <glyph glyph-name="braceright" unicode="}" horiz-adv-x="325" 
d="M327 290v-95h-30q-81 0 -81 -93v-152q0 -91 -33.5 -123t-112.5 -32h-53v95h27q36 0 51.5 15t15.5 54v169q0 94 76 115q-76 21 -76 115v166q0 40 -15.5 55.5t-51.5 15.5h-27v95h51q81 0 114.5 -32.5t33.5 -126.5v-147q0 -94 81 -94h30z" />
    <glyph glyph-name="asciitilde" unicode="~" 
d="M488 354v-123q-19 -14 -31.5 -21t-34 -13t-47.5 -6q-51 0 -121 31t-115 31q-9 0 -17 -1t-17 -3.5t-15 -4.5t-16 -7t-13.5 -6.5t-15 -8t-14.5 -7.5v123q69 40 121 40q46 0 115 -31t118 -31q44 0 103 38z" />
    <glyph glyph-name="uni00A0" unicode="&#xa0;" horiz-adv-x="206" 
 />
    <glyph glyph-name="exclamdown" unicode="&#xa1;" horiz-adv-x="272" 
d="M81 258h110l40 -434h-190zM244 407q0 -47 -30.5 -77.5t-76.5 -30.5q-47 0 -77.5 30.5t-30.5 77.5q0 46 30.5 76.5t77.5 30.5t77 -30t30 -77z" />
    <glyph glyph-name="cent" unicode="&#xa2;" 
d="M381 690v-87q37 -6 53 -13v-171q-22 14 -53 23v-194q28 8 53 24v-170q-13 -7 -53 -15v-87h-105v87q-97 17 -154.5 88.5t-57.5 170.5t57.5 170t154.5 87v87h105zM229 346q0 -58 47 -89v177q-47 -31 -47 -88z" />
    <glyph glyph-name="sterling" unicode="&#xa3;" 
d="M39 381h57q-9 47 -9 81q0 99 61.5 164t174.5 65q94 0 145 -30v-186q-20 17 -58 32.5t-72 15.5q-38 0 -58 -19.5t-20 -50.5q0 -24 16 -72h151v-109h-116q5 -23 5 -42q0 -17 -9.5 -36.5t-22.5 -29.5h183v-164h-398v144q23 6 40.5 27t17.5 45q0 27 -6 56h-82v109z" />
    <glyph glyph-name="currency" unicode="&#xa4;" horiz-adv-x="550" 
d="M66 283q0 47 20 92l-56 60l92 90l56 -58q42 20 92 20q56 0 102 -24l59 59l84 -84l-57 -60q24 -44 24 -95q0 -50 -24 -95l62 -65l-91 -90l-67 66q-39 -18 -92 -18q-49 0 -89 19l-61 -61l-85 84l57 60q-26 47 -26 100zM198 283q0 -28 20.5 -51.5t52.5 -23.5q35 0 55.5 23.5
t20.5 51.5q0 29 -20.5 53t-55.5 24q-32 0 -52.5 -24t-20.5 -53z" />
    <glyph glyph-name="yen" unicode="&#xa5;" 
d="M51 234h125v38h-124v109h81l-142 299h190l80 -222l81 222h190l-142 -299h72v-109h-116v-38h116v-109h-116v-125h-170v125h-125v109z" />
    <glyph glyph-name="brokenbar" unicode="&#xa6;" horiz-adv-x="239" 
d="M172 394h-105v296h105v-296zM67 108h105v-313h-105v313z" />
    <glyph glyph-name="section" unicode="&#xa7;" horiz-adv-x="510" 
d="M437 479q-100 50 -160 50q-52 0 -52 -22q0 -15 44 -31l95 -35q109 -40 109 -150q0 -64 -53 -110q53 -46 53 -131q0 -73 -58 -125t-166 -52q-99 0 -187 37v183q92 -60 179 -60q51 0 51 20q0 14 -45 31l-96 37q-108 41 -108 146q0 71 51 114q-51 46 -51 131q0 73 57 125
t177 52q81 0 160 -34v-176zM227 317q-13 -12 -13 -27q0 -9 13.5 -18t44.5 -23l13 -6q18 12 18 29q0 14 -59 38z" />
    <glyph glyph-name="dieresis" unicode="&#xa8;" horiz-adv-x="580" 
d="M96 645q0 35 24 59.5t60 24.5t59.5 -24.5t23.5 -59.5q0 -36 -23.5 -60t-59.5 -24t-60 24t-24 60zM317 645q0 35 24 59.5t59 24.5q36 0 60 -24.5t24 -59.5q0 -36 -23.5 -60t-60.5 -24q-35 0 -59 24t-24 60z" />
    <glyph glyph-name="copyright" unicode="&#xa9;" horiz-adv-x="822" 
d="M32 340q0 161 107.5 267t271.5 106t271.5 -106t107.5 -267q0 -160 -107.5 -266.5t-271.5 -106.5q-163 0 -271 106.5t-108 266.5zM129 340q0 -125 78.5 -202.5t203.5 -77.5t203.5 77.5t78.5 202.5t-78.5 202.5t-203.5 77.5t-203.5 -77.5t-78.5 -202.5zM518 271v-130
q-40 -14 -87 -14q-94 0 -157 61t-63 150t63 150t157 61q47 0 87 -14v-132q-33 31 -87 31q-43 0 -72.5 -28.5t-29.5 -67.5t29.5 -67.5t72.5 -28.5q54 0 87 29z" />
    <glyph glyph-name="ordfeminine" unicode="&#xaa;" horiz-adv-x="366" 
d="M60 510v108q57 22 112 22q156 0 156 -152v-193h-118v20q-23 -28 -73 -28q-54 0 -83.5 31.5t-29.5 75.5q0 45 32.5 74.5t85.5 29.5q42 0 68 -14v6q0 47 -60 47q-38 0 -90 -27zM145 396q0 -12 8 -20.5t21 -8.5q14 0 22 8.5t8 20.5t-8 19.5t-22 7.5q-13 0 -21 -7.5t-8 -19.5
zM61 249h247v-109h-247v109z" />
    <glyph glyph-name="guillemotleft" unicode="&#xab;" horiz-adv-x="527" 
d="M28 284l165 235l83 -59l-91 -177l92 -176l-84 -58zM242 284l165 235l83 -59l-91 -177l92 -176l-84 -58z" />
    <glyph glyph-name="logicalnot" unicode="&#xac;" 
d="M21 346v125h457v-302h-129v177h-328z" />
    <glyph glyph-name="uni00AD" unicode="&#xad;" horiz-adv-x="371" 
d="M324 208h-277v154h277v-154z" />
    <glyph glyph-name="registered" unicode="&#xae;" horiz-adv-x="607" 
d="M39 507q0 113 75 187t189 74q115 0 190 -74t75 -187q0 -112 -75 -186t-190 -74q-113 0 -188.5 74t-75.5 186zM105 507q0 -88 55.5 -142.5t142.5 -54.5q88 0 143.5 54.5t55.5 142.5q0 89 -55.5 143t-143.5 54t-143 -54t-55 -143zM196 368v285h114q46 0 74 -22t28 -61
q0 -30 -16 -49t-38 -25q57 -31 64 -128h-81q-14 96 -61 96h-5v-96h-79zM331 559q0 19 -21 19h-35v-38h35q21 0 21 19z" />
    <glyph glyph-name="macron" unicode="&#xaf;" horiz-adv-x="580" 
d="M137 676h305v-105h-305v105z" />
    <glyph glyph-name="degree" unicode="&#xb0;" horiz-adv-x="392" 
d="M24 521q0 68 45.5 118.5t123.5 50.5q80 0 127.5 -50.5t47.5 -118.5q0 -65 -47.5 -116t-127.5 -51q-77 0 -123 51t-46 116zM116 521q0 -30 21.5 -54.5t55.5 -24.5q37 0 58.5 24.5t21.5 54.5q0 31 -21.5 56t-58.5 25q-35 0 -56 -25.5t-21 -55.5z" />
    <glyph glyph-name="plusminus" unicode="&#xb1;" 
d="M31 361v125h160v167h135v-167h162v-125h-162v-129h-135v129h-160zM31 37v125h457v-125h-457z" />
    <glyph glyph-name="twosuperior" unicode="&#xb2;" horiz-adv-x="309" 
d="M26 389v97l113 131q26 29 26 49q0 38 -39 38q-50 0 -92 -35v125q39 23 101 23q76 0 112.5 -38t36.5 -90q0 -63 -46 -116l-63 -73h100v-111h-249z" />
    <glyph glyph-name="threesuperior" unicode="&#xb3;" horiz-adv-x="306" 
d="M63 548v111h60q32 0 32 21q0 22 -35 22q-49 0 -84 -23v125q32 13 88 13q68 0 108.5 -34.5t40.5 -86.5q0 -63 -48 -91q60 -33 60 -98q0 -52 -44 -88.5t-111 -36.5q-57 0 -100 15v134q37 -34 92 -34q19 0 32 7.5t13 20.5q0 23 -44 23h-60z" />
    <glyph glyph-name="acute" unicode="&#xb4;" horiz-adv-x="580" 
d="M260 696h132l-87 -147h-117z" />
    <glyph glyph-name="mu" unicode="&#xb5;" horiz-adv-x="584" 
d="M355 0v55q-43 -66 -123 -66h-8v-194h-163v709h163v-282q0 -34 17.5 -54t47.5 -20q29 0 46.5 18t19.5 49v289h163v-504h-163z" />
    <glyph glyph-name="paragraph" unicode="&#xb6;" horiz-adv-x="640" 
d="M256 504h122v-709h-117v314h-5q-234 0 -234 194q0 94 58 147.5t176 53.5zM569 -205h-117v709h117v-709z" />
    <glyph glyph-name="periodcentered" unicode="&#xb7;" horiz-adv-x="283" 
d="M34 306q0 47 30.5 77.5t76.5 30.5q47 0 77.5 -31t30.5 -77t-30.5 -76.5t-77.5 -30.5t-77 30.5t-30 76.5z" />
    <glyph glyph-name="cedilla" unicode="&#xb8;" horiz-adv-x="580" 
d="M339 -152h-160l81 172h140z" />
    <glyph glyph-name="onesuperior" unicode="&#xb9;" horiz-adv-x="321" 
d="M21 389v111h94v200h-74v111h189v-311h82v-111h-291z" />
    <glyph glyph-name="ordmasculine" unicode="&#xba;" horiz-adv-x="382" 
d="M11 465q0 74 52 124.5t128 50.5t128 -50.5t52 -124.5q0 -75 -52 -126t-128 -51t-128 51t-52 126zM130 465q0 -26 17.5 -45t43.5 -19t43.5 19t17.5 45q0 25 -17.5 43.5t-43.5 18.5t-43.5 -18.5t-17.5 -43.5zM68 249h247v-109h-247v109z" />
    <glyph glyph-name="guillemotright" unicode="&#xbb;" horiz-adv-x="527" 
d="M500 283l-165 -235l-83 59l91 177l-92 176l84 58zM285 283l-165 -235l-83 59l91 177l-92 176l84 58z" />
    <glyph glyph-name="onequarter" unicode="&#xbc;" horiz-adv-x="886" 
d="M257 0l302 680h120l-303 -680h-119zM36 258v111h94v200h-74v111h189v-311h82v-111h-291zM859 74h-48v-74h-115v74h-180v97l180 251h115v-237h48v-111zM635 185h61v85z" />
    <glyph glyph-name="onehalf" unicode="&#xbd;" horiz-adv-x="883" 
d="M255 0l302 680h120l-303 -680h-119zM34 258v111h94v200h-74v111h189v-311h82v-111h-291zM594 0v97l113 131q26 29 26 49q0 38 -39 38q-50 0 -92 -35v125q39 23 101 23q76 0 112.5 -38t36.5 -90q0 -63 -46 -116l-63 -73h100v-111h-249z" />
    <glyph glyph-name="threequarters" unicode="&#xbe;" horiz-adv-x="849" 
d="M220 0l302 680h120l-303 -680h-119zM822 74h-48v-74h-115v74h-180v97l180 251h115v-237h48v-111zM598 185h61v85zM72 417v111h60q32 0 32 21q0 22 -35 22q-49 0 -84 -23v125q32 13 88 13q68 0 108.5 -34.5t40.5 -86.5q0 -63 -48 -91q60 -33 60 -98q0 -52 -44 -88.5
t-111 -36.5q-57 0 -100 15v134q37 -34 92 -34q19 0 32 8t13 20q0 23 -44 23h-60z" />
    <glyph glyph-name="questiondown" unicode="&#xbf;" horiz-adv-x="429" 
d="M163 258h165q0 -55 -8.5 -81t-42.5 -52l-45 -35q-29 -23 -29 -56q0 -50 67 -50q29 0 66 13.5t60 32.5v-192q-57 -24 -142 -24q-114 0 -170 60t-56 144q0 80 63 138l49 45q15 14 19 24t4 33zM353 407q0 -47 -30.5 -77.5t-76.5 -30.5t-77 30.5t-31 77.5q0 46 30.5 76.5
t77.5 30.5q46 0 76.5 -30t30.5 -77z" />
    <glyph glyph-name="Agrave" unicode="&#xc0;" horiz-adv-x="668" 
d="M489 0l-42 123h-227l-41 -123h-190l250 680h190l250 -680h-190zM334 458l-58 -171h116zM184 872h132l72 -147h-117z" />
    <glyph glyph-name="Aacute" unicode="&#xc1;" horiz-adv-x="668" 
d="M489 0l-42 123h-227l-41 -123h-190l250 680h190l250 -680h-190zM334 458l-58 -171h116zM351 872h132l-87 -147h-117z" />
    <glyph glyph-name="Acircumflex" unicode="&#xc2;" horiz-adv-x="668" 
d="M489 0l-42 123h-227l-41 -123h-190l250 680h190l250 -680h-190zM334 458l-58 -171h116zM250 872h168l82 -147h-117l-49 84l-49 -84h-117z" />
    <glyph glyph-name="Atilde" unicode="&#xc3;" horiz-adv-x="668" 
d="M489 0l-42 123h-227l-41 -123h-190l250 680h190l250 -680h-190zM334 458l-58 -171h116zM487 844v-107q-43 25 -78 25q-26 0 -75.5 -21t-80.5 -21q-43 0 -72 21v107q28 -25 72 -25q23 0 70 21t86 21q40 0 78 -21z" />
    <glyph glyph-name="Adieresis" unicode="&#xc4;" horiz-adv-x="668" 
d="M489 0l-42 123h-227l-41 -123h-190l250 680h190l250 -680h-190zM334 458l-58 -171h116zM140 821q0 35 24 59.5t60 24.5t59.5 -24.5t23.5 -59.5q0 -36 -23.5 -60t-59.5 -24t-60 24t-24 60zM361 821q0 35 24 59.5t59 24.5q36 0 60 -24.5t24 -59.5q0 -36 -23.5 -60
t-60.5 -24q-35 0 -59 24t-24 60z" />
    <glyph glyph-name="Aring" unicode="&#xc5;" horiz-adv-x="668" 
d="M489 0l-42 123h-227l-41 -123h-190l250 680h190l250 -680h-190zM334 458l-58 -171h116zM223 818q0 42 28.5 72.5t80.5 30.5q54 0 84 -30.5t30 -72.5q0 -40 -30 -70t-84 -30q-51 0 -80 30t-29 70zM295 818q0 -14 9.5 -24.5t27.5 -10.5q20 0 30 10.5t10 24.5q0 15 -10 26.5
t-30 11.5q-18 0 -27.5 -11.5t-9.5 -26.5z" />
    <glyph glyph-name="AE" unicode="&#xc6;" horiz-adv-x="934" 
d="M883 0h-398v123h-210l-81 -123h-209l470 680h428v-164h-228v-91h208v-164h-208v-97h228v-164zM366 287h119v181z" />
    <glyph glyph-name="Ccedilla" unicode="&#xc7;" horiz-adv-x="564" 
d="M357 -152h-160l74 157q-109 33 -176 124t-67 211q0 149 100.5 250t249.5 101q76 0 143 -28v-195q-56 53 -143 53q-74 0 -124.5 -53t-50.5 -128q0 -76 50.5 -128.5t124.5 -52.5q88 0 143 51v-193q-53 -23 -114 -27z" />
    <glyph glyph-name="Egrave" unicode="&#xc8;" horiz-adv-x="517" 
d="M466 0h-398v680h398v-164h-228v-91h208v-164h-208v-97h228v-164zM133 872h132l72 -147h-117z" />
    <glyph glyph-name="Eacute" unicode="&#xc9;" horiz-adv-x="517" 
d="M466 0h-398v680h398v-164h-228v-91h208v-164h-208v-97h228v-164zM283 872h132l-87 -147h-117z" />
    <glyph glyph-name="Ecircumflex" unicode="&#xca;" horiz-adv-x="517" 
d="M466 0h-398v680h398v-164h-228v-91h208v-164h-208v-97h228v-164zM181 872h168l82 -147h-117l-49 84l-49 -84h-117z" />
    <glyph glyph-name="Edieresis" unicode="&#xcb;" horiz-adv-x="517" 
d="M466 0h-398v680h398v-164h-228v-91h208v-164h-208v-97h228v-164zM76 821q0 35 24 59.5t60 24.5t59.5 -24.5t23.5 -59.5q0 -36 -23.5 -60t-59.5 -24t-60 24t-24 60zM297 821q0 35 24 59.5t59 24.5q36 0 60 -24.5t24 -59.5q0 -36 -23.5 -60t-60.5 -24q-35 0 -59 24t-24 60z
" />
    <glyph glyph-name="Igrave" unicode="&#xcc;" horiz-adv-x="306" 
d="M68 0v680h170v-680h-170zM11 872h132l72 -147h-117z" />
    <glyph glyph-name="Iacute" unicode="&#xcd;" horiz-adv-x="306" 
d="M68 0v680h170v-680h-170zM170 872h132l-87 -147h-117z" />
    <glyph glyph-name="Icircumflex" unicode="&#xce;" horiz-adv-x="306" 
d="M68 0v680h170v-680h-170zM69 872h168l82 -147h-117l-49 84l-49 -84h-117z" />
    <glyph glyph-name="Idieresis" unicode="&#xcf;" horiz-adv-x="306" 
d="M68 0v680h170v-680h-170zM-41 821q0 35 24 59.5t60 24.5t59.5 -24.5t23.5 -59.5q0 -36 -23.5 -60t-59.5 -24t-60 24t-24 60zM180 821q0 35 24 59.5t59 24.5q36 0 60 -24.5t24 -59.5q0 -36 -23.5 -60t-60.5 -24q-35 0 -59 24t-24 60z" />
    <glyph glyph-name="Eth" unicode="&#xd0;" horiz-adv-x="698" 
d="M22 392h50v288h259q155 0 246 -94.5t91 -245.5t-91 -245.5t-246 -94.5h-259v287h-50v105zM329 516h-87v-124h85v-105h-85v-123h87q79 0 121.5 49t42.5 127t-42.5 127t-121.5 49z" />
    <glyph glyph-name="Ntilde" unicode="&#xd1;" horiz-adv-x="717" 
d="M479 0l-235 346v-346h-170v591l-47 78v11h200l252 -384v384h170v-680h-170zM516 844v-107q-43 25 -78 25q-26 0 -75.5 -21t-80.5 -21q-43 0 -72 21v107q28 -25 72 -25q23 0 70 21t86 21q40 0 78 -21z" />
    <glyph glyph-name="Ograve" unicode="&#xd2;" horiz-adv-x="756" 
d="M28 340q0 149 100.5 250t249.5 101t249.5 -101t100.5 -250t-100.5 -250t-249.5 -101t-249.5 101t-100.5 250zM203 340q0 -76 50.5 -128.5t124.5 -52.5t124.5 53t50.5 128t-50.5 128t-124.5 53t-124.5 -53t-50.5 -128zM236 872h132l72 -147h-117z" />
    <glyph glyph-name="Oacute" unicode="&#xd3;" horiz-adv-x="756" 
d="M28 340q0 149 100.5 250t249.5 101t249.5 -101t100.5 -250t-100.5 -250t-249.5 -101t-249.5 101t-100.5 250zM203 340q0 -76 50.5 -128.5t124.5 -52.5t124.5 53t50.5 128t-50.5 128t-124.5 53t-124.5 -53t-50.5 -128zM398 872h132l-87 -147h-117z" />
    <glyph glyph-name="Ocircumflex" unicode="&#xd4;" horiz-adv-x="756" 
d="M28 340q0 149 100.5 250t249.5 101t249.5 -101t100.5 -250t-100.5 -250t-249.5 -101t-249.5 101t-100.5 250zM203 340q0 -76 50.5 -128.5t124.5 -52.5t124.5 53t50.5 128t-50.5 128t-124.5 53t-124.5 -53t-50.5 -128zM294 872h168l82 -147h-117l-49 84l-49 -84h-117z" />
    <glyph glyph-name="Otilde" unicode="&#xd5;" horiz-adv-x="756" 
d="M28 340q0 149 100.5 250t249.5 101t249.5 -101t100.5 -250t-100.5 -250t-249.5 -101t-249.5 101t-100.5 250zM203 340q0 -76 50.5 -128.5t124.5 -52.5t124.5 53t50.5 128t-50.5 128t-124.5 53t-124.5 -53t-50.5 -128zM531 844v-107q-43 25 -78 25q-26 0 -75.5 -21
t-80.5 -21q-43 0 -72 21v107q28 -25 72 -25q23 0 70 21t86 21q40 0 78 -21z" />
    <glyph glyph-name="Odieresis" unicode="&#xd6;" horiz-adv-x="756" 
d="M28 340q0 149 100.5 250t249.5 101t249.5 -101t100.5 -250t-100.5 -250t-249.5 -101t-249.5 101t-100.5 250zM203 340q0 -76 50.5 -128.5t124.5 -52.5t124.5 53t50.5 128t-50.5 128t-124.5 53t-124.5 -53t-50.5 -128zM184 821q0 35 24 59.5t60 24.5t59.5 -24.5
t23.5 -59.5q0 -36 -23.5 -60t-59.5 -24t-60 24t-24 60zM405 821q0 35 24 59.5t59 24.5q36 0 60 -24.5t24 -59.5q0 -36 -23.5 -60t-60.5 -24q-35 0 -59 24t-24 60z" />
    <glyph glyph-name="multiply" unicode="&#xd7;" 
d="M108 43l-89 89l149 148l-154 154l96 95l153 -153l150 150l89 -89l-150 -150l153 -153l-95 -96l-154 154z" />
    <glyph glyph-name="Oslash" unicode="&#xd8;" horiz-adv-x="756" 
d="M28 340q0 149 100.5 250t249.5 101q91 0 171 -43l49 68l78 -54l-51 -70q103 -101 103 -252q0 -149 -100.5 -250t-249.5 -101q-90 0 -166 39l-46 -63l-73 52l45 63q-110 102 -110 260zM203 340q0 -68 39 -116l204 282q-35 15 -68 15q-74 0 -124.5 -53t-50.5 -128zM553 340
q0 61 -34 107l-203 -277q30 -11 62 -11q74 0 124.5 53t50.5 128z" />
    <glyph glyph-name="Ugrave" unicode="&#xd9;" horiz-adv-x="654" 
d="M423 680h170v-418q0 -129 -71.5 -201t-194.5 -72t-194.5 72t-71.5 201v418h170v-432q0 -42 26 -68t70 -26t70 26t26 68v432zM184 872h132l72 -147h-117z" />
    <glyph glyph-name="Uacute" unicode="&#xda;" horiz-adv-x="654" 
d="M423 680h170v-418q0 -129 -71.5 -201t-194.5 -72t-194.5 72t-71.5 201v418h170v-432q0 -42 26 -68t70 -26t70 26t26 68v432zM341 872h132l-87 -147h-117z" />
    <glyph glyph-name="Ucircumflex" unicode="&#xdb;" horiz-adv-x="654" 
d="M423 680h170v-418q0 -129 -71.5 -201t-194.5 -72t-194.5 72t-71.5 201v418h170v-432q0 -42 26 -68t70 -26t70 26t26 68v432zM243 872h168l82 -147h-117l-49 84l-49 -84h-117z" />
    <glyph glyph-name="Udieresis" unicode="&#xdc;" horiz-adv-x="654" 
d="M423 680h170v-418q0 -129 -71.5 -201t-194.5 -72t-194.5 72t-71.5 201v418h170v-432q0 -42 26 -68t70 -26t70 26t26 68v432zM133 821q0 35 24 59.5t60 24.5t59.5 -24.5t23.5 -59.5q0 -36 -23.5 -60t-59.5 -24t-60 24t-24 60zM354 821q0 35 24 59.5t59 24.5q36 0 60 -24.5
t24 -59.5q0 -36 -23.5 -60t-60.5 -24q-35 0 -59 24t-24 60z" />
    <glyph glyph-name="Yacute" unicode="&#xdd;" horiz-adv-x="576" 
d="M203 0v290l-215 390h190l110 -222l111 222h190l-216 -392v-288h-170zM300 872h132l-87 -147h-117z" />
    <glyph glyph-name="Thorn" unicode="&#xde;" horiz-adv-x="556" 
d="M68 0v680h170v-116h78q103 0 166.5 -59.5t63.5 -161.5t-63.5 -161.5t-166.5 -59.5h-78v-122h-170zM371 343q0 27 -16 42t-41 15h-76v-114h76q25 0 41 15t16 42z" />
    <glyph glyph-name="germandbls" unicode="&#xdf;" horiz-adv-x="565" 
d="M266 431h35q23 0 37.5 15.5t14.5 38.5q0 26 -18 42.5t-48 16.5q-34 0 -53.5 -19.5t-19.5 -59.5v-465h-163v457q0 112 59 177.5t176 65.5q108 0 169 -55.5t61 -140.5q0 -48 -20 -85.5t-52 -56.5q41 -18 68 -59.5t27 -87.5q0 -105 -60.5 -162t-171.5 -57q-12 0 -42 3l1 154
q30 -3 41 -3q33 0 52.5 20.5t19.5 56.5q0 28 -20.5 46.5t-53.5 18.5h-39v139z" />
    <glyph glyph-name="agrave" unicode="&#xe0;" horiz-adv-x="492" 
d="M75 335v152q69 27 147 27q224 0 224 -220v-294h-163v29q-38 -40 -103 -40q-79 0 -120 47.5t-41 114.5q0 68 45 114t119 46q58 0 100 -26v13q0 72 -81 72q-65 0 -127 -35zM179 151q0 -19 14.5 -32t36.5 -13t36.5 13t14.5 32t-14.5 32t-36.5 13t-36.5 -13t-14.5 -32z
M96 696h132l72 -147h-117z" />
    <glyph glyph-name="aacute" unicode="&#xe1;" horiz-adv-x="492" 
d="M75 335v152q69 27 147 27q224 0 224 -220v-294h-163v29q-38 -40 -103 -40q-79 0 -120 47.5t-41 114.5q0 68 45 114t119 46q58 0 100 -26v13q0 72 -81 72q-65 0 -127 -35zM179 151q0 -19 14.5 -32t36.5 -13t36.5 13t14.5 32t-14.5 32t-36.5 13t-36.5 -13t-14.5 -32z
M270 696h132l-87 -147h-117z" />
    <glyph glyph-name="acircumflex" unicode="&#xe2;" horiz-adv-x="492" 
d="M75 335v152q69 27 147 27q224 0 224 -220v-294h-163v29q-38 -40 -103 -40q-79 0 -120 47.5t-41 114.5q0 68 45 114t119 46q58 0 100 -26v13q0 72 -81 72q-65 0 -127 -35zM179 151q0 -19 14.5 -32t36.5 -13t36.5 13t14.5 32t-14.5 32t-36.5 13t-36.5 -13t-14.5 -32z
M153 696h168l82 -147h-117l-49 84l-49 -84h-117z" />
    <glyph glyph-name="atilde" unicode="&#xe3;" horiz-adv-x="492" 
d="M75 335v152q69 27 147 27q224 0 224 -220v-294h-163v29q-38 -40 -103 -40q-79 0 -120 47.5t-41 114.5q0 68 45 114t119 46q58 0 100 -26v13q0 72 -81 72q-65 0 -127 -35zM179 151q0 -19 14.5 -32t36.5 -13t36.5 13t14.5 32t-14.5 32t-36.5 13t-36.5 -13t-14.5 -32z
M391 668v-107q-43 25 -78 25q-26 0 -75.5 -21t-80.5 -21q-43 0 -72 21v107q28 -25 72 -25q23 0 70 21t86 21q40 0 78 -21z" />
    <glyph glyph-name="adieresis" unicode="&#xe4;" horiz-adv-x="492" 
d="M75 335v152q69 27 147 27q224 0 224 -220v-294h-163v29q-38 -40 -103 -40q-79 0 -120 47.5t-41 114.5q0 68 45 114t119 46q58 0 100 -26v13q0 72 -81 72q-65 0 -127 -35zM179 151q0 -19 14.5 -32t36.5 -13t36.5 13t14.5 32t-14.5 32t-36.5 13t-36.5 -13t-14.5 -32z
M42 645q0 35 24 59.5t60 24.5t59.5 -24.5t23.5 -59.5q0 -36 -23.5 -60t-59.5 -24t-60 24t-24 60zM263 645q0 35 24 59.5t59 24.5q36 0 60 -24.5t24 -59.5q0 -36 -23.5 -60t-60.5 -24q-35 0 -59 24t-24 60z" />
    <glyph glyph-name="aring" unicode="&#xe5;" horiz-adv-x="492" 
d="M75 335v152q69 27 147 27q224 0 224 -220v-294h-163v29q-38 -40 -103 -40q-79 0 -120 47.5t-41 114.5q0 68 45 114t119 46q58 0 100 -26v13q0 72 -81 72q-65 0 -127 -35zM179 151q0 -19 14.5 -32t36.5 -13t36.5 13t14.5 32t-14.5 32t-36.5 13t-36.5 -13t-14.5 -32z
M126 642q0 42 28.5 72.5t80.5 30.5q54 0 84 -30.5t30 -72.5q0 -40 -30 -70t-84 -30q-51 0 -80 30t-29 70zM198 642q0 -14 9.5 -24.5t27.5 -10.5q20 0 30 10.5t10 24.5q0 15 -10 26.5t-30 11.5q-18 0 -27.5 -11.5t-9.5 -26.5z" />
    <glyph glyph-name="ae" unicode="&#xe6;" horiz-adv-x="822" 
d="M792 203h-312q9 -32 39 -50t74 -18q95 0 166 40v-153q-64 -33 -186 -33q-127 0 -186 72q-67 -72 -180 -72q-97 0 -142.5 46.5t-45.5 115.5q0 68 45 114t119 46q58 0 100 -26v13q0 72 -81 72q-65 0 -127 -35v152q69 27 147 27q121 0 177 -65q70 65 170 65q106 0 169 -68.5
t63 -167.5q0 -43 -9 -75zM179 151q0 -19 14.5 -32t36.5 -13t36.5 13t14.5 32t-14.5 32t-36.5 13t-36.5 -13t-14.5 -32zM568 380q-33 0 -58 -16.5t-31 -39.5h167q-2 25 -23.5 40.5t-54.5 15.5z" />
    <glyph glyph-name="ccedilla" unicode="&#xe7;" horiz-adv-x="432" 
d="M279 -152h-160l74 157q-79 27 -124 93.5t-45 153.5q0 114 73.5 188t193.5 74q62 0 103 -18v-171q-46 30 -103 30q-44 0 -73 -30t-29 -73t29 -73.5t73 -30.5q57 0 103 30v-170q-21 -10 -64 -16z" />
    <glyph glyph-name="egrave" unicode="&#xe8;" horiz-adv-x="529" 
d="M499 203h-312q9 -32 39 -50t74 -18q95 0 166 40v-153q-69 -33 -180 -33q-115 0 -188.5 72.5t-73.5 190.5q0 112 71.5 187t180.5 75q106 0 169 -68.5t63 -167.5q0 -43 -9 -75zM275 380q-33 0 -58 -16.5t-31 -39.5h167q-2 25 -23.5 40.5t-54.5 15.5zM139 696h132l72 -147
h-117z" />
    <glyph glyph-name="eacute" unicode="&#xe9;" horiz-adv-x="529" 
d="M499 203h-312q9 -32 39 -50t74 -18q95 0 166 40v-153q-69 -33 -180 -33q-115 0 -188.5 72.5t-73.5 190.5q0 112 71.5 187t180.5 75q106 0 169 -68.5t63 -167.5q0 -43 -9 -75zM275 380q-33 0 -58 -16.5t-31 -39.5h167q-2 25 -23.5 40.5t-54.5 15.5zM296 696h132l-87 -147
h-117z" />
    <glyph glyph-name="ecircumflex" unicode="&#xea;" horiz-adv-x="529" 
d="M499 203h-312q9 -32 39 -50t74 -18q95 0 166 40v-153q-69 -33 -180 -33q-115 0 -188.5 72.5t-73.5 190.5q0 112 71.5 187t180.5 75q106 0 169 -68.5t63 -167.5q0 -43 -9 -75zM275 380q-33 0 -58 -16.5t-31 -39.5h167q-2 25 -23.5 40.5t-54.5 15.5zM197 696h168l82 -147
h-117l-49 84l-49 -84h-117z" />
    <glyph glyph-name="edieresis" unicode="&#xeb;" horiz-adv-x="529" 
d="M499 203h-312q9 -32 39 -50t74 -18q95 0 166 40v-153q-69 -33 -180 -33q-115 0 -188.5 72.5t-73.5 190.5q0 112 71.5 187t180.5 75q106 0 169 -68.5t63 -167.5q0 -43 -9 -75zM275 380q-33 0 -58 -16.5t-31 -39.5h167q-2 25 -23.5 40.5t-54.5 15.5zM85 645q0 35 24 59.5
t60 24.5t59.5 -24.5t23.5 -59.5q0 -36 -23.5 -60t-59.5 -24t-60 24t-24 60zM306 645q0 35 24 59.5t59 24.5q36 0 60 -24.5t24 -59.5q0 -36 -23.5 -60t-60.5 -24q-35 0 -59 24t-24 60z" />
    <glyph glyph-name="igrave" unicode="&#xec;" horiz-adv-x="265" 
d="M214 504v-504h-163v504h163zM-10 696h132l72 -147h-117z" />
    <glyph glyph-name="iacute" unicode="&#xed;" horiz-adv-x="265" 
d="M214 504v-504h-163v504h163zM147 696h132l-87 -147h-117z" />
    <glyph glyph-name="icircumflex" unicode="&#xee;" horiz-adv-x="265" 
d="M214 504v-504h-163v504h163zM48 696h168l82 -147h-117l-49 84l-49 -84h-117z" />
    <glyph glyph-name="idieresis" unicode="&#xef;" horiz-adv-x="265" 
d="M214 504v-504h-163v504h163zM-62 645q0 35 24 59.5t60 24.5t59.5 -24.5t23.5 -59.5q0 -36 -23.5 -60t-59.5 -24t-60 24t-24 60zM159 645q0 35 24 59.5t59 24.5q36 0 60 -24.5t24 -59.5q0 -36 -23.5 -60t-60.5 -24q-35 0 -59 24t-24 60z" />
    <glyph glyph-name="eth" unicode="&#xf0;" horiz-adv-x="541" 
d="M424 598l-65 -24l116 -190q43 -72 43 -147q0 -106 -71 -177t-177 -71q-105 0 -176 71t-71 177q0 97 58 162t144 80l-24 36l-62 -23l-42 68l59 22l-65 98h204l21 -36l65 25zM195 237q0 -33 21.5 -55.5t53.5 -22.5t54 23t22 55t-22 54.5t-54 22.5t-53.5 -22.5t-21.5 -54.5z
" />
    <glyph glyph-name="ntilde" unicode="&#xf1;" horiz-adv-x="556" 
d="M214 504v-56q45 66 123 66q77 0 124.5 -52t47.5 -132v-330h-163v282q0 34 -18 53.5t-48 19.5q-29 0 -47 -17.5t-19 -49.5v-288h-163v504h163zM433 668v-107q-43 25 -78 25q-26 0 -75.5 -21t-80.5 -21q-43 0 -72 21v107q28 -25 72 -25q23 0 70 21t86 21q40 0 78 -21z" />
    <glyph glyph-name="ograve" unicode="&#xf2;" horiz-adv-x="570" 
d="M23 252q0 111 75.5 186.5t186.5 75.5t186.5 -75.5t75.5 -186.5t-75.5 -187t-186.5 -76t-186.5 76t-75.5 187zM188 252q0 -43 28 -73.5t69 -30.5q42 0 69.5 30.5t27.5 73.5t-27.5 73t-69.5 30q-41 0 -69 -30t-28 -73zM150 696h132l72 -147h-117z" />
    <glyph glyph-name="oacute" unicode="&#xf3;" horiz-adv-x="570" 
d="M23 252q0 111 75.5 186.5t186.5 75.5t186.5 -75.5t75.5 -186.5t-75.5 -187t-186.5 -76t-186.5 76t-75.5 187zM188 252q0 -43 28 -73.5t69 -30.5q42 0 69.5 30.5t27.5 73.5t-27.5 73t-69.5 30q-41 0 -69 -30t-28 -73zM306 696h132l-87 -147h-117z" />
    <glyph glyph-name="ocircumflex" unicode="&#xf4;" horiz-adv-x="570" 
d="M23 252q0 111 75.5 186.5t186.5 75.5t186.5 -75.5t75.5 -186.5t-75.5 -187t-186.5 -76t-186.5 76t-75.5 187zM188 252q0 -43 28 -73.5t69 -30.5q42 0 69.5 30.5t27.5 73.5t-27.5 73t-69.5 30q-41 0 -69 -30t-28 -73zM201 696h168l82 -147h-117l-49 84l-49 -84h-117z" />
    <glyph glyph-name="otilde" unicode="&#xf5;" horiz-adv-x="570" 
d="M23 252q0 111 75.5 186.5t186.5 75.5t186.5 -75.5t75.5 -186.5t-75.5 -187t-186.5 -76t-186.5 76t-75.5 187zM188 252q0 -43 28 -73.5t69 -30.5q42 0 69.5 30.5t27.5 73.5t-27.5 73t-69.5 30q-41 0 -69 -30t-28 -73zM438 668v-107q-43 25 -78 25q-26 0 -75.5 -21
t-80.5 -21q-43 0 -72 21v107q28 -25 72 -25q23 0 70 21t86 21q40 0 78 -21z" />
    <glyph glyph-name="odieresis" unicode="&#xf6;" horiz-adv-x="570" 
d="M23 252q0 111 75.5 186.5t186.5 75.5t186.5 -75.5t75.5 -186.5t-75.5 -187t-186.5 -76t-186.5 76t-75.5 187zM188 252q0 -43 28 -73.5t69 -30.5q42 0 69.5 30.5t27.5 73.5t-27.5 73t-69.5 30q-41 0 -69 -30t-28 -73zM91 645q0 35 24 59.5t60 24.5t59.5 -24.5t23.5 -59.5
q0 -36 -23.5 -60t-59.5 -24t-60 24t-24 60zM312 645q0 35 24 59.5t59 24.5q36 0 60 -24.5t24 -59.5q0 -36 -23.5 -60t-60.5 -24q-35 0 -59 24t-24 60z" />
    <glyph glyph-name="divide" unicode="&#xf7;" 
d="M262 -3q-37 0 -61 22.5t-24 57.5t24 58t61 23q36 0 60 -23t24 -58q0 -34 -24 -57t-60 -23zM262 409q-37 0 -61 23t-24 58t24 57.5t61 22.5q36 0 60 -22.5t24 -57.5t-24 -58t-60 -23zM31 223v125h457v-125h-457z" />
    <glyph glyph-name="oslash" unicode="&#xf8;" horiz-adv-x="570" 
d="M23 252q0 111 75.5 186.5t186.5 75.5q62 0 118 -27l34 46l78 -54l-36 -49q68 -74 68 -178q0 -111 -75.5 -187t-186.5 -76q-60 0 -113 25l-36 -49l-73 52l35 48q-75 75 -75 187zM175 252q0 -33 15 -60l125 173q-20 4 -30 4q-47 0 -78.5 -34.5t-31.5 -82.5zM395 252
q0 26 -11 50l-121 -165q14 -2 22 -2q47 0 78.5 34.5t31.5 82.5z" />
    <glyph glyph-name="ugrave" unicode="&#xf9;" horiz-adv-x="559" 
d="M343 0v55q-43 -66 -123 -66q-76 0 -123.5 52t-47.5 132v331h163v-282q0 -34 17.5 -54t47.5 -20q29 0 46.5 18t19.5 49v289h163v-504h-163zM130 696h132l72 -147h-117z" />
    <glyph glyph-name="uacute" unicode="&#xfa;" horiz-adv-x="559" 
d="M343 0v55q-43 -66 -123 -66q-76 0 -123.5 52t-47.5 132v331h163v-282q0 -34 17.5 -54t47.5 -20q29 0 46.5 18t19.5 49v289h163v-504h-163zM292 696h132l-87 -147h-117z" />
    <glyph glyph-name="ucircumflex" unicode="&#xfb;" horiz-adv-x="559" 
d="M343 0v55q-43 -66 -123 -66q-76 0 -123.5 52t-47.5 132v331h163v-282q0 -34 17.5 -54t47.5 -20q29 0 46.5 18t19.5 49v289h163v-504h-163zM193 696h168l82 -147h-117l-49 84l-49 -84h-117z" />
    <glyph glyph-name="udieresis" unicode="&#xfc;" horiz-adv-x="559" 
d="M343 0v55q-43 -66 -123 -66q-76 0 -123.5 52t-47.5 132v331h163v-282q0 -34 17.5 -54t47.5 -20q29 0 46.5 18t19.5 49v289h163v-504h-163zM83 645q0 35 24 59.5t60 24.5t59.5 -24.5t23.5 -59.5q0 -36 -23.5 -60t-59.5 -24t-60 24t-24 60zM304 645q0 35 24 59.5t59 24.5
q36 0 60 -24.5t24 -59.5q0 -36 -23.5 -60t-60.5 -24q-35 0 -59 24t-24 60z" />
    <glyph glyph-name="yacute" unicode="&#xfd;" horiz-adv-x="536" 
d="M63 -205l116 243l-181 466h183l87 -260l96 260h183l-296 -709h-188zM291 696h132l-87 -147h-117z" />
    <glyph glyph-name="thorn" unicode="&#xfe;" horiz-adv-x="612" 
d="M217 690v-244q47 68 137 68q103 0 168.5 -75t65.5 -187q0 -113 -65.5 -188t-169.5 -75q-84 0 -136 58v-252h-163v895h163zM217 252q0 -42 29 -72.5t73 -30.5q43 0 71.5 30.5t28.5 72.5t-28.5 72t-71.5 30q-44 0 -73 -30t-29 -72z" />
    <glyph glyph-name="ydieresis" unicode="&#xff;" horiz-adv-x="536" 
d="M63 -205l116 243l-181 466h183l87 -260l96 260h183l-296 -709h-188zM79 645q0 35 24 59.5t60 24.5t59.5 -24.5t23.5 -59.5q0 -36 -23.5 -60t-59.5 -24t-60 24t-24 60zM300 645q0 35 24 59.5t59 24.5q36 0 60 -24.5t24 -59.5q0 -36 -23.5 -60t-60.5 -24q-35 0 -59 24
t-24 60z" />
    <glyph glyph-name="Amacron" unicode="&#x100;" horiz-adv-x="668" 
d="M489 0l-42 123h-227l-41 -123h-190l250 680h190l250 -680h-190zM334 458l-58 -171h116zM181 852h305v-105h-305v105z" />
    <glyph glyph-name="amacron" unicode="&#x101;" horiz-adv-x="492" 
d="M75 335v152q69 27 147 27q224 0 224 -220v-294h-163v29q-38 -40 -103 -40q-79 0 -120 47.5t-41 114.5q0 68 45 114t119 46q58 0 100 -26v13q0 72 -81 72q-65 0 -127 -35zM179 151q0 -19 14.5 -32t36.5 -13t36.5 13t14.5 32t-14.5 32t-36.5 13t-36.5 -13t-14.5 -32z
M83 676h305v-105h-305v105z" />
    <glyph glyph-name="Abreve" unicode="&#x102;" horiz-adv-x="668" 
d="M489 0l-42 123h-227l-41 -123h-190l250 680h190l250 -680h-190zM334 458l-58 -171h116zM407 875h85q0 -68 -41.5 -112t-118.5 -44q-74 0 -114.5 44t-40.5 112h82q5 -27 25.5 -44.5t47.5 -17.5q29 0 49.5 17.5t25.5 44.5z" />
    <glyph glyph-name="abreve" unicode="&#x103;" horiz-adv-x="492" 
d="M75 335v152q69 27 147 27q224 0 224 -220v-294h-163v29q-38 -40 -103 -40q-79 0 -120 47.5t-41 114.5q0 68 45 114t119 46q58 0 100 -26v13q0 72 -81 72q-65 0 -127 -35zM179 151q0 -19 14.5 -32t36.5 -13t36.5 13t14.5 32t-14.5 32t-36.5 13t-36.5 -13t-14.5 -32z
M308 699h85q0 -68 -41.5 -112t-118.5 -44q-74 0 -114.5 44t-40.5 112h82q5 -27 25.5 -44.5t47.5 -17.5q29 0 49.5 17.5t25.5 44.5z" />
    <glyph glyph-name="Aogonek" unicode="&#x104;" horiz-adv-x="668" 
d="M489 0l-42 123h-227l-41 -123h-190l250 680h190l250 -680l-90 -51q-27 -15 -27 -32q0 -20 25 -20q30 0 61 27v-104q-36 -18 -87 -18q-63 0 -96.5 22.5t-33.5 64.5q0 56 58 84l56 27h-56zM334 458l-58 -171h116z" />
    <glyph glyph-name="aogonek" unicode="&#x105;" horiz-adv-x="492" 
d="M75 335v152q69 27 147 27q224 0 224 -220v-294l-90 -51q-27 -15 -27 -32q0 -20 25 -20q30 0 61 27v-104q-36 -18 -87 -18q-63 0 -96.5 22.5t-33.5 64.5q0 56 58 84l56 27h-29v29q-38 -40 -103 -40q-79 0 -120 47.5t-41 114.5q0 68 45 114t119 46q58 0 100 -26v13
q0 72 -81 72q-65 0 -127 -35zM179 151q0 -19 14.5 -32t36.5 -13t36.5 13t14.5 32t-14.5 32t-36.5 13t-36.5 -13t-14.5 -32z" />
    <glyph glyph-name="Cacute" unicode="&#x106;" horiz-adv-x="564" 
d="M521 210v-193q-67 -28 -143 -28q-149 0 -249.5 101t-100.5 250t100.5 250t249.5 101q76 0 143 -28v-195q-56 53 -143 53q-74 0 -124.5 -53t-50.5 -128q0 -76 50.5 -128.5t124.5 -52.5q88 0 143 51zM384 872h132l-87 -147h-117z" />
    <glyph glyph-name="cacute" unicode="&#x107;" horiz-adv-x="432" 
d="M394 178v-170q-40 -19 -103 -19q-119 0 -193 75t-74 188q0 114 73.5 188t193.5 74q62 0 103 -18v-171q-46 30 -103 30q-44 0 -73 -30t-29 -73t29 -73.5t73 -30.5q57 0 103 30zM291 696h132l-87 -147h-117z" />
    <glyph glyph-name="Ccircumflex" unicode="&#x108;" horiz-adv-x="564" 
d="M521 210v-193q-67 -28 -143 -28q-149 0 -249.5 101t-100.5 250t100.5 250t249.5 101q76 0 143 -28v-195q-56 53 -143 53q-74 0 -124.5 -53t-50.5 -128q0 -76 50.5 -128.5t124.5 -52.5q88 0 143 51zM281 872h168l82 -147h-117l-49 84l-49 -84h-117z" />
    <glyph glyph-name="ccircumflex" unicode="&#x109;" horiz-adv-x="432" 
d="M394 178v-170q-40 -19 -103 -19q-119 0 -193 75t-74 188q0 114 73.5 188t193.5 74q62 0 103 -18v-171q-46 30 -103 30q-44 0 -73 -30t-29 -73t29 -73.5t73 -30.5q57 0 103 30zM179 696h168l82 -147h-117l-49 84l-49 -84h-117z" />
    <glyph glyph-name="Cdotaccent" unicode="&#x10a;" horiz-adv-x="564" 
d="M521 210v-193q-67 -28 -143 -28q-149 0 -249.5 101t-100.5 250t100.5 250t249.5 101q76 0 143 -28v-195q-56 53 -143 53q-74 0 -124.5 -53t-50.5 -128q0 -76 50.5 -128.5t124.5 -52.5q88 0 143 51zM280 821q0 39 27 66t66 27q40 0 66.5 -27t26.5 -66q0 -40 -26.5 -66.5
t-66.5 -26.5t-66.5 26.5t-26.5 66.5z" />
    <glyph glyph-name="cdotaccent" unicode="&#x10b;" horiz-adv-x="432" 
d="M394 178v-170q-40 -19 -103 -19q-119 0 -193 75t-74 188q0 114 73.5 188t193.5 74q62 0 103 -18v-171q-46 30 -103 30q-44 0 -73 -30t-29 -73t29 -73.5t73 -30.5q57 0 103 30zM189 645q0 39 27 66t66 27q40 0 66.5 -27t26.5 -66q0 -40 -26.5 -66.5t-66.5 -26.5
t-66.5 26.5t-26.5 66.5z" />
    <glyph glyph-name="Ccaron" unicode="&#x10c;" horiz-adv-x="564" 
d="M521 210v-193q-67 -28 -143 -28q-149 0 -249.5 101t-100.5 250t100.5 250t249.5 101q76 0 143 -28v-195q-56 53 -143 53q-74 0 -124.5 -53t-50.5 -128q0 -76 50.5 -128.5t124.5 -52.5q88 0 143 51zM452 725h-168l-82 147h117l49 -84l49 84h117z" />
    <glyph glyph-name="ccaron" unicode="&#x10d;" horiz-adv-x="432" 
d="M394 178v-170q-40 -19 -103 -19q-119 0 -193 75t-74 188q0 114 73.5 188t193.5 74q62 0 103 -18v-171q-46 30 -103 30q-44 0 -73 -30t-29 -73t29 -73.5t73 -30.5q57 0 103 30zM346 549h-168l-82 147h117l49 -84l49 84h117z" />
    <glyph glyph-name="Dcaron" unicode="&#x10e;" horiz-adv-x="694" 
d="M68 0v680h259q155 0 246 -94.5t91 -245.5t-91 -245.5t-246 -94.5h-259zM325 516h-87v-352h87q79 0 121.5 49t42.5 127t-42.5 127t-121.5 49zM416 725h-168l-82 147h117l49 -84l49 84h117z" />
    <glyph glyph-name="dcaron" unicode="&#x10f;" horiz-adv-x="612" 
d="M395 0v47q-55 -58 -137 -58q-104 0 -169 75t-65 188t65 187.5t170 74.5q83 0 136 -58v234h163v-690h-163zM395 252q0 42 -29 72t-72 30q-44 0 -73 -30t-29 -72t29.5 -72.5t72.5 -30.5t72 30.5t29 72.5zM722 526h-125l23 155h150z" />
    <glyph glyph-name="Dcroat" unicode="&#x110;" horiz-adv-x="698" 
d="M22 392h50v288h259q155 0 246 -94.5t91 -245.5t-91 -245.5t-246 -94.5h-259v287h-50v105zM329 516h-87v-124h85v-105h-85v-123h87q79 0 121.5 49t42.5 127t-42.5 127t-121.5 49z" />
    <glyph glyph-name="dcroat" unicode="&#x111;" horiz-adv-x="612" 
d="M395 0v47q-55 -58 -137 -58q-104 0 -169 75t-65 188t65 187.5t170 74.5q83 0 136 -58v86h-102v94h102v54h163v-54h42v-94h-42v-542h-163zM395 252q0 42 -29 72t-72 30q-44 0 -73 -30t-29 -72t29.5 -72.5t72.5 -30.5t72 30.5t29 72.5z" />
    <glyph glyph-name="Emacron" unicode="&#x112;" horiz-adv-x="517" 
d="M466 0h-398v680h398v-164h-228v-91h208v-164h-208v-97h228v-164zM119 852h305v-105h-305v105z" />
    <glyph glyph-name="emacron" unicode="&#x113;" horiz-adv-x="529" 
d="M499 203h-312q9 -32 39 -50t74 -18q95 0 166 40v-153q-69 -33 -180 -33q-115 0 -188.5 72.5t-73.5 190.5q0 112 71.5 187t180.5 75q106 0 169 -68.5t63 -167.5q0 -43 -9 -75zM275 380q-33 0 -58 -16.5t-31 -39.5h167q-2 25 -23.5 40.5t-54.5 15.5zM124 676h305v-105h-305
v105z" />
    <glyph glyph-name="Ebreve" unicode="&#x114;" horiz-adv-x="517" 
d="M466 0h-398v680h398v-164h-228v-91h208v-164h-208v-97h228v-164zM344 875h85q0 -68 -41.5 -112t-118.5 -44q-74 0 -114.5 44t-40.5 112h82q5 -27 25.5 -44.5t47.5 -17.5q29 0 49.5 17.5t25.5 44.5z" />
    <glyph glyph-name="ebreve" unicode="&#x115;" horiz-adv-x="529" 
d="M499 203h-312q9 -32 39 -50t74 -18q95 0 166 40v-153q-69 -33 -180 -33q-115 0 -188.5 72.5t-73.5 190.5q0 112 71.5 187t180.5 75q106 0 169 -68.5t63 -167.5q0 -43 -9 -75zM275 380q-33 0 -58 -16.5t-31 -39.5h167q-2 25 -23.5 40.5t-54.5 15.5zM349 699h85
q0 -68 -41.5 -112t-118.5 -44q-74 0 -114.5 44t-40.5 112h82q5 -27 25.5 -44.5t47.5 -17.5q29 0 49.5 17.5t25.5 44.5z" />
    <glyph glyph-name="Edotaccent" unicode="&#x116;" horiz-adv-x="517" 
d="M466 0h-398v680h398v-164h-228v-91h208v-164h-208v-97h228v-164zM183 821q0 39 27 66t66 27q40 0 66.5 -27t26.5 -66q0 -40 -26.5 -66.5t-66.5 -26.5t-66.5 26.5t-26.5 66.5z" />
    <glyph glyph-name="edotaccent" unicode="&#x117;" horiz-adv-x="529" 
d="M499 203h-312q9 -32 39 -50t74 -18q95 0 166 40v-153q-69 -33 -180 -33q-115 0 -188.5 72.5t-73.5 190.5q0 112 71.5 187t180.5 75q106 0 169 -68.5t63 -167.5q0 -43 -9 -75zM275 380q-33 0 -58 -16.5t-31 -39.5h167q-2 25 -23.5 40.5t-54.5 15.5zM187 645q0 39 27 66
t66 27q40 0 66.5 -27t26.5 -66q0 -40 -26.5 -66.5t-66.5 -26.5t-66.5 26.5t-26.5 66.5z" />
    <glyph glyph-name="Eogonek" unicode="&#x118;" horiz-adv-x="517" 
d="M466 0l-90 -51q-27 -15 -27 -32q0 -20 25 -20q30 0 61 27v-104q-36 -18 -87 -18q-63 0 -96.5 22.5t-33.5 64.5q0 56 58 84l56 27h-264v680h398v-164h-228v-91h208v-164h-208v-97h228v-164z" />
    <glyph glyph-name="eogonek" unicode="&#x119;" horiz-adv-x="529" 
d="M499 203h-312q9 -32 39 -50t74 -18q95 0 166 40v-153q-33 -16 -77 -24l-86 -49q-27 -15 -27 -32q0 -20 25 -20q30 0 61 27v-104q-36 -18 -87 -18q-63 0 -96.5 22.5t-33.5 64.5q0 56 58 84l39 19q-98 14 -158 84t-60 176q0 112 71.5 187t180.5 75q106 0 169 -68.5
t63 -167.5q0 -43 -9 -75zM275 380q-33 0 -58 -16.5t-31 -39.5h167q-2 25 -23.5 40.5t-54.5 15.5z" />
    <glyph glyph-name="Ecaron" unicode="&#x11a;" horiz-adv-x="517" 
d="M466 0h-398v680h398v-164h-228v-91h208v-164h-208v-97h228v-164zM349 725h-168l-82 147h117l49 -84l49 84h117z" />
    <glyph glyph-name="ecaron" unicode="&#x11b;" horiz-adv-x="529" 
d="M499 203h-312q9 -32 39 -50t74 -18q95 0 166 40v-153q-69 -33 -180 -33q-115 0 -188.5 72.5t-73.5 190.5q0 112 71.5 187t180.5 75q106 0 169 -68.5t63 -167.5q0 -43 -9 -75zM275 380q-33 0 -58 -16.5t-31 -39.5h167q-2 25 -23.5 40.5t-54.5 15.5zM362 549h-168l-82 147
h117l49 -84l49 84h117z" />
    <glyph glyph-name="Gcircumflex" unicode="&#x11c;" horiz-adv-x="715" 
d="M561 664v-184q-77 41 -183 41q-75 0 -125 -51t-50 -130q0 -76 48 -128.5t121 -52.5q64 0 103 35t39 76v6h-143v154h318q10 -45 10 -104q0 -142 -86.5 -239.5t-245.5 -97.5q-147 0 -243 100.5t-96 250.5t99.5 250.5t250.5 100.5q113 0 183 -27zM289 872h168l82 -147h-117
l-49 84l-49 -84h-117z" />
    <glyph glyph-name="gcircumflex" unicode="&#x11d;" horiz-adv-x="617" 
d="M401 504h163v-432q0 -144 -74.5 -215.5t-214.5 -71.5q-101 0 -165 35v166q77 -49 165 -49q57 0 91.5 29.5t34.5 82.5v13q-58 -58 -144 -58q-102 0 -167 72t-65 182t65 183t166 73q89 0 145 -61v51zM391 259q0 40 -27.5 68t-68.5 28t-68.5 -28t-27.5 -68t27.5 -68
t68.5 -28t68.5 28t27.5 68zM233 696h168l82 -147h-117l-49 84l-49 -84h-117z" />
    <glyph glyph-name="Gbreve" unicode="&#x11e;" horiz-adv-x="715" 
d="M561 664v-184q-77 41 -183 41q-75 0 -125 -51t-50 -130q0 -76 48 -128.5t121 -52.5q64 0 103 35t39 76v6h-143v154h318q10 -45 10 -104q0 -142 -86.5 -239.5t-245.5 -97.5q-147 0 -243 100.5t-96 250.5t99.5 250.5t250.5 100.5q113 0 183 -27zM456 875h85
q0 -68 -41.5 -112t-118.5 -44q-74 0 -114.5 44t-40.5 112h82q5 -27 25.5 -44.5t47.5 -17.5q29 0 49.5 17.5t25.5 44.5z" />
    <glyph glyph-name="gbreve" unicode="&#x11f;" horiz-adv-x="617" 
d="M401 504h163v-432q0 -144 -74.5 -215.5t-214.5 -71.5q-101 0 -165 35v166q77 -49 165 -49q57 0 91.5 29.5t34.5 82.5v13q-58 -58 -144 -58q-102 0 -167 72t-65 182t65 183t166 73q89 0 145 -61v51zM391 259q0 40 -27.5 68t-68.5 28t-68.5 -28t-27.5 -68t27.5 -68
t68.5 -28t68.5 28t27.5 68zM392 699h85q0 -68 -41.5 -112t-118.5 -44q-74 0 -114.5 44t-40.5 112h82q5 -27 25.5 -44.5t47.5 -17.5q29 0 49.5 17.5t25.5 44.5z" />
    <glyph glyph-name="Gdotaccent" unicode="&#x120;" horiz-adv-x="715" 
d="M561 664v-184q-77 41 -183 41q-75 0 -125 -51t-50 -130q0 -76 48 -128.5t121 -52.5q64 0 103 35t39 76v6h-143v154h318q10 -45 10 -104q0 -142 -86.5 -239.5t-245.5 -97.5q-147 0 -243 100.5t-96 250.5t99.5 250.5t250.5 100.5q113 0 183 -27zM283 821q0 39 27 66t66 27
q40 0 66.5 -27t26.5 -66q0 -40 -26.5 -66.5t-66.5 -26.5t-66.5 26.5t-26.5 66.5z" />
    <glyph glyph-name="gdotaccent" unicode="&#x121;" horiz-adv-x="617" 
d="M401 504h163v-432q0 -144 -74.5 -215.5t-214.5 -71.5q-101 0 -165 35v166q77 -49 165 -49q57 0 91.5 29.5t34.5 82.5v13q-58 -58 -144 -58q-102 0 -167 72t-65 182t65 183t166 73q89 0 145 -61v51zM391 259q0 40 -27.5 68t-68.5 28t-68.5 -28t-27.5 -68t27.5 -68
t68.5 -28t68.5 28t27.5 68zM218 645q0 39 27 66t66 27q40 0 66.5 -27t26.5 -66q0 -40 -26.5 -66.5t-66.5 -26.5t-66.5 26.5t-26.5 66.5z" />
    <glyph glyph-name="Gcommaaccent" unicode="&#x122;" horiz-adv-x="715" 
d="M561 664v-184q-77 41 -183 41q-75 0 -125 -51t-50 -130q0 -76 48 -128.5t121 -52.5q64 0 103 35t39 76v6h-143v154h318q10 -45 10 -104q0 -142 -86.5 -239.5t-245.5 -97.5q-147 0 -243 100.5t-96 250.5t99.5 250.5t250.5 100.5q113 0 183 -27zM402 -215h-125l23 155h150z
" />
    <glyph glyph-name="gcommaaccent" unicode="&#x123;" horiz-adv-x="617" 
d="M401 504h163v-432q0 -144 -74.5 -215.5t-214.5 -71.5q-101 0 -165 35v166q77 -49 165 -49q57 0 91.5 29.5t34.5 82.5v13q-58 -58 -144 -58q-102 0 -167 72t-65 182t65 183t166 73q89 0 145 -61v51zM391 259q0 40 -27.5 68t-68.5 28t-68.5 -28t-27.5 -68t27.5 -68
t68.5 -28t68.5 28t27.5 68zM288 701h125l-23 -155h-150z" />
    <glyph glyph-name="Hcircumflex" unicode="&#x124;" horiz-adv-x="748" 
d="M510 0v261h-272v-261h-170v680h170v-255h272v255h170v-680h-170zM290 872h168l82 -147h-117l-49 84l-49 -84h-117z" />
    <glyph glyph-name="hcircumflex" unicode="&#x125;" horiz-adv-x="556" 
d="M214 690v-242q47 66 123 66q77 0 124.5 -52t47.5 -132v-330h-163v282q0 34 -18 53.5t-47 19.5q-30 0 -48 -17.5t-19 -49.5v-288h-163v690h163zM196 870h168l82 -147h-117l-49 84l-49 -84h-117z" />
    <glyph glyph-name="Hbar" unicode="&#x126;" horiz-adv-x="748" 
d="M510 0v261h-272v-261h-170v680h170v-70h272v70h170v-680h-170zM238 425h272v80h-272v-80z" />
    <glyph glyph-name="hbar" unicode="&#x127;" horiz-adv-x="556" 
d="M214 690v-54h105v-94h-105v-94q47 66 123 66q77 0 124.5 -52t47.5 -132v-330h-163v282q0 34 -18 53.5t-47 19.5q-30 0 -48 -17.5t-19 -49.5v-288h-163v542h-39v94h39v54h163z" />
    <glyph glyph-name="Itilde" unicode="&#x128;" horiz-adv-x="306" 
d="M68 0v680h170v-680h-170zM306 844v-107q-43 25 -78 25q-26 0 -75.5 -21t-80.5 -21q-43 0 -72 21v107q28 -25 72 -25q23 0 70 21t86 21q40 0 78 -21z" />
    <glyph glyph-name="itilde" unicode="&#x129;" horiz-adv-x="265" 
d="M214 504v-504h-163v504h163zM285 668v-107q-43 25 -78 25q-26 0 -75.5 -21t-80.5 -21q-43 0 -72 21v107q28 -25 72 -25q23 0 70 21t86 21q40 0 78 -21z" />
    <glyph glyph-name="Imacron" unicode="&#x12a;" horiz-adv-x="306" 
d="M68 0v680h170v-680h-170zM1 852h305v-105h-305v105z" />
    <glyph glyph-name="imacron" unicode="&#x12b;" horiz-adv-x="265" 
d="M214 504v-504h-163v504h163zM-20 676h305v-105h-305v105z" />
    <glyph glyph-name="Ibreve" unicode="&#x12c;" horiz-adv-x="306" 
d="M68 0v680h170v-680h-170zM226 875h85q0 -68 -41.5 -112t-118.5 -44q-74 0 -114.5 44t-40.5 112h82q5 -27 25.5 -44.5t47.5 -17.5q29 0 49.5 17.5t25.5 44.5z" />
    <glyph glyph-name="ibreve" unicode="&#x12d;" horiz-adv-x="265" 
d="M214 504v-504h-163v504h163zM205 699h85q0 -68 -41.5 -112t-118.5 -44q-74 0 -114.5 44t-40.5 112h82q5 -27 25.5 -44.5t47.5 -17.5q29 0 49.5 17.5t25.5 44.5z" />
    <glyph glyph-name="Iogonek" unicode="&#x12e;" horiz-adv-x="306" 
d="M68 0v680h170v-680l-90 -51q-27 -15 -27 -32q0 -20 25 -20q30 0 61 27v-104q-36 -18 -87 -18q-63 0 -96.5 22.5t-33.5 64.5q0 56 58 84l56 27h-36z" />
    <glyph glyph-name="iogonek" unicode="&#x12f;" horiz-adv-x="265" 
d="M214 504v-504l-90 -51q-27 -15 -27 -32q0 -20 25 -20q30 0 61 27v-104q-36 -18 -87 -18q-63 0 -96.5 22.5t-33.5 64.5q0 56 58 84l56 27h-29v504h163zM39 645q0 39 27 66t66 27q40 0 66.5 -27t26.5 -66q0 -40 -26.5 -66.5t-66.5 -26.5t-66.5 26.5t-26.5 66.5z" />
    <glyph glyph-name="Idotaccent" unicode="&#x130;" horiz-adv-x="306" 
d="M68 0v680h170v-680h-170zM60 821q0 39 27 66t66 27q40 0 66.5 -27t26.5 -66q0 -40 -26.5 -66.5t-66.5 -26.5t-66.5 26.5t-26.5 66.5z" />
    <glyph glyph-name="dotlessi" unicode="&#x131;" horiz-adv-x="265" 
d="M214 504v-504h-163v504h163z" />
    <glyph glyph-name="IJ" unicode="&#x132;" horiz-adv-x="755" 
d="M68 0v680h170v-680h-170zM522 680h170v-444q0 -123 -51.5 -185t-162.5 -62q-41 0 -83 10t-65 26v185q54 -51 121 -51q71 0 71 82v439z" />
    <glyph glyph-name="ij" unicode="&#x133;" horiz-adv-x="530" 
d="M214 504v-504h-163v504h163zM39 645q0 39 27 66t66 27q40 0 66.5 -27t26.5 -66q0 -40 -26.5 -66.5t-66.5 -26.5t-66.5 26.5t-26.5 66.5zM316 -17v521h163v-522q0 -96 -49.5 -146.5t-135.5 -50.5q-29 0 -46 5v163q15 -8 30 -8q38 0 38 38zM305 645q0 39 27 66t67 27
q39 0 66 -27t27 -66q0 -40 -26.5 -66.5t-66.5 -26.5t-67 26.5t-27 66.5z" />
    <glyph glyph-name="Jcircumflex" unicode="&#x134;" horiz-adv-x="449" 
d="M216 680h170v-444q0 -123 -51.5 -185t-162.5 -62q-41 0 -83 10t-65 26v185q54 -51 121 -51q71 0 71 82v439zM211 872h168l82 -147h-117l-49 84l-49 -84h-117z" />
    <glyph glyph-name="jcircumflex" unicode="&#x135;" horiz-adv-x="265" 
d="M51 -17v521h163v-522q0 -96 -49.5 -146.5t-135.5 -50.5q-29 0 -46 5v163q15 -8 30 -8q38 0 38 38zM49 696h168l82 -147h-117l-49 84l-49 -84h-117z" />
    <glyph glyph-name="Kcommaaccent" unicode="&#x136;" horiz-adv-x="583" 
d="M68 0v680h170v-246l136 246h197l-171 -279l181 -401h-198l-106 255l-39 -63v-192h-170zM335 -215h-125l23 155h150z" />
    <glyph glyph-name="kcommaaccent" unicode="&#x137;" horiz-adv-x="511" 
d="M51 0v690h163v-352l106 166h190l-144 -205l142 -299h-188l-76 183l-30 -48v-135h-163zM298 -215h-125l23 155h150z" />
    <glyph glyph-name="kgreenlandic" unicode="&#x138;" horiz-adv-x="511" 
d="M51 0v504h163v-166l106 166h190l-144 -205l142 -299h-188l-76 183l-30 -48v-135h-163z" />
    <glyph glyph-name="Lacute" unicode="&#x139;" horiz-adv-x="484" 
d="M466 0h-398v680h170v-516h228v-164zM168 872h132l-87 -147h-117z" />
    <glyph glyph-name="lacute" unicode="&#x13a;" horiz-adv-x="265" 
d="M214 690v-690h-163v690h163zM147 870h132l-87 -147h-117z" />
    <glyph glyph-name="Lcommaaccent" unicode="&#x13b;" horiz-adv-x="484" 
d="M466 0h-398v680h170v-516h228v-164zM291 -215h-125l23 155h150z" />
    <glyph glyph-name="lcommaaccent" unicode="&#x13c;" horiz-adv-x="265" 
d="M214 690v-690h-163v690h163zM158 -215h-125l23 155h150z" />
    <glyph glyph-name="Lcaron" unicode="&#x13d;" horiz-adv-x="486" 
d="M466 0h-398v680h170v-516h228v-164zM427 525h-125l23 155h150z" />
    <glyph glyph-name="lcaron" unicode="&#x13e;" horiz-adv-x="265" 
d="M214 690v-690h-163v690h163zM377 526h-125l23 155h150z" />
    <glyph glyph-name="Ldot" unicode="&#x13f;" horiz-adv-x="487" 
d="M466 0h-398v680h170v-516h228v-164zM283 367q0 43 28 71t70 28q43 0 71 -28t28 -71t-28 -70.5t-71 -27.5q-42 0 -70 27.5t-28 70.5z" />
    <glyph glyph-name="ldot" unicode="&#x140;" horiz-adv-x="432" 
d="M214 690v-690h-163v690h163zM249 367q0 43 28 71t70 28q43 0 71 -28t28 -71t-28 -70.5t-71 -27.5q-42 0 -70 27.5t-28 70.5z" />
    <glyph glyph-name="Lslash" unicode="&#x141;" horiz-adv-x="490" 
d="M472 0h-398v245l-63 -31v115l63 31v320h170v-237l144 71v-115l-144 -71v-164h228v-164z" />
    <glyph glyph-name="lslash" unicode="&#x142;" horiz-adv-x="321" 
d="M238 690v-248l80 40v-115l-80 -40v-327h-163v246l-66 -32v115l66 32v329h163z" />
    <glyph glyph-name="Nacute" unicode="&#x143;" horiz-adv-x="715" 
d="M477 0l-235 346v-346h-170v591l-47 78v11h200l252 -384v384h170v-680h-170zM374 872h132l-87 -147h-117z" />
    <glyph glyph-name="nacute" unicode="&#x144;" horiz-adv-x="556" 
d="M214 504v-56q45 66 123 66q77 0 124.5 -52t47.5 -132v-330h-163v282q0 34 -18 53.5t-48 19.5q-29 0 -47 -17.5t-19 -49.5v-288h-163v504h163zM300 696h132l-87 -147h-117z" />
    <glyph glyph-name="Ncommaaccent" unicode="&#x145;" horiz-adv-x="715" 
d="M477 0l-235 346v-346h-170v591l-47 78v11h200l252 -384v384h170v-680h-170zM393 -215h-125l23 155h150z" />
    <glyph glyph-name="ncommaaccent" unicode="&#x146;" horiz-adv-x="556" 
d="M214 504v-56q45 66 123 66q77 0 124.5 -52t47.5 -132v-330h-163v282q0 34 -18 53.5t-48 19.5q-29 0 -47 -17.5t-19 -49.5v-288h-163v504h163zM303 -215h-125l23 155h150z" />
    <glyph glyph-name="Ncaron" unicode="&#x147;" horiz-adv-x="715" 
d="M477 0l-235 346v-346h-170v591l-47 78v11h200l252 -384v384h170v-680h-170zM445 725h-168l-82 147h117l49 -84l49 84h117z" />
    <glyph glyph-name="ncaron" unicode="&#x148;" horiz-adv-x="556" 
d="M214 504v-56q45 66 123 66q77 0 124.5 -52t47.5 -132v-330h-163v282q0 34 -18 53.5t-48 19.5q-29 0 -47 -17.5t-19 -49.5v-288h-163v504h163zM364 549h-168l-82 147h117l49 -84l49 84h117z" />
    <glyph glyph-name="napostrophe" unicode="&#x149;" horiz-adv-x="556" 
d="M214 504v-56q45 66 123 66q77 0 124.5 -52t47.5 -132v-330h-163v282q0 34 -18 53.5t-48 19.5q-29 0 -47 -17.5t-19 -49.5v-288h-163v504h163zM98 525h-125l23 155h150z" />
    <glyph glyph-name="Eng" unicode="&#x14a;" horiz-adv-x="715" 
d="M480 -17v21l-238 342v-346h-170v591l-47 78v11h200l252 -384v384h170v-698q0 -96 -51 -146.5t-138 -50.5q-29 0 -46 5v163q15 -8 30 -8q38 0 38 38z" />
    <glyph glyph-name="eng" unicode="&#x14b;" horiz-adv-x="556" 
d="M346 -17v299q0 34 -18 53.5t-48 19.5q-29 0 -47 -17.5t-19 -49.5v-288h-163v504h163v-56q45 66 123 66q77 0 124.5 -52t47.5 -132v-348q0 -96 -49.5 -146.5t-135.5 -50.5q-29 0 -46 5v163q15 -8 30 -8q38 0 38 38z" />
    <glyph glyph-name="Omacron" unicode="&#x14c;" horiz-adv-x="756" 
d="M28 340q0 149 100.5 250t249.5 101t249.5 -101t100.5 -250t-100.5 -250t-249.5 -101t-249.5 101t-100.5 250zM203 340q0 -76 50.5 -128.5t124.5 -52.5t124.5 53t50.5 128t-50.5 128t-124.5 53t-124.5 -53t-50.5 -128zM225 852h305v-105h-305v105z" />
    <glyph glyph-name="omacron" unicode="&#x14d;" horiz-adv-x="570" 
d="M23 252q0 111 75.5 186.5t186.5 75.5t186.5 -75.5t75.5 -186.5t-75.5 -187t-186.5 -76t-186.5 76t-75.5 187zM188 252q0 -43 28 -73.5t69 -30.5q42 0 69.5 30.5t27.5 73.5t-27.5 73t-69.5 30q-41 0 -69 -30t-28 -73zM133 676h305v-105h-305v105z" />
    <glyph glyph-name="Obreve" unicode="&#x14e;" horiz-adv-x="756" 
d="M28 340q0 149 100.5 250t249.5 101t249.5 -101t100.5 -250t-100.5 -250t-249.5 -101t-249.5 101t-100.5 250zM203 340q0 -76 50.5 -128.5t124.5 -52.5t124.5 53t50.5 128t-50.5 128t-124.5 53t-124.5 -53t-50.5 -128zM450 875h85q0 -68 -41.5 -112t-118.5 -44
q-74 0 -114.5 44t-40.5 112h82q5 -27 25.5 -44.5t47.5 -17.5q29 0 49.5 17.5t25.5 44.5z" />
    <glyph glyph-name="obreve" unicode="&#x14f;" horiz-adv-x="570" 
d="M23 252q0 111 75.5 186.5t186.5 75.5t186.5 -75.5t75.5 -186.5t-75.5 -187t-186.5 -76t-186.5 76t-75.5 187zM188 252q0 -43 28 -73.5t69 -30.5q42 0 69.5 30.5t27.5 73.5t-27.5 73t-69.5 30q-41 0 -69 -30t-28 -73zM358 699h85q0 -68 -41.5 -112t-118.5 -44
q-74 0 -114.5 44t-40.5 112h82q5 -27 25.5 -44.5t47.5 -17.5q29 0 49.5 17.5t25.5 44.5z" />
    <glyph glyph-name="Ohungarumlaut" unicode="&#x150;" horiz-adv-x="756" 
d="M28 340q0 149 100.5 250t249.5 101t249.5 -101t100.5 -250t-100.5 -250t-249.5 -101t-249.5 101t-100.5 250zM203 340q0 -76 50.5 -128.5t124.5 -52.5t124.5 53t50.5 128t-50.5 128t-124.5 53t-124.5 -53t-50.5 -128zM313 872h132l-87 -147h-117zM502 872h132l-87 -147
h-117z" />
    <glyph glyph-name="ohungarumlaut" unicode="&#x151;" horiz-adv-x="570" 
d="M23 252q0 111 75.5 186.5t186.5 75.5t186.5 -75.5t75.5 -186.5t-75.5 -187t-186.5 -76t-186.5 76t-75.5 187zM188 252q0 -43 28 -73.5t69 -30.5q42 0 69.5 30.5t27.5 73.5t-27.5 73t-69.5 30q-41 0 -69 -30t-28 -73zM217 696h132l-87 -147h-117zM406 696h132l-87 -147
h-117z" />
    <glyph glyph-name="OE" unicode="&#x152;" horiz-adv-x="1005" 
d="M954 0h-398v35q-80 -46 -178 -46q-149 0 -249.5 101t-100.5 250t100.5 250t249.5 101q96 0 178 -46v35h398v-164h-228v-91h208v-164h-208v-97h228v-164zM203 340q0 -76 50.5 -128.5t124.5 -52.5t124.5 53t50.5 128t-50.5 128t-124.5 53t-124.5 -53t-50.5 -128z" />
    <glyph glyph-name="oe" unicode="&#x153;" horiz-adv-x="892" 
d="M862 203h-312q9 -32 39 -50t74 -18q95 0 166 40v-153q-69 -33 -180 -33t-185 69q-70 -69 -179 -69q-116 0 -189 77.5t-73 185.5q0 111 75.5 186.5t186.5 75.5q105 0 180 -69q71 69 174 69q106 0 169 -68.5t63 -167.5q0 -43 -9 -75zM188 252q0 -43 28 -73.5t69 -30.5
q42 0 69.5 30.5t27.5 73.5t-27.5 73t-69.5 30q-41 0 -69 -30t-28 -73zM638 380q-33 0 -58 -16.5t-31 -39.5h167q-2 25 -23.5 40.5t-54.5 15.5z" />
    <glyph glyph-name="Racute" unicode="&#x154;" horiz-adv-x="603" 
d="M68 0v680h253q104 0 167 -53t63 -149q0 -68 -32.5 -111.5t-82.5 -59.5q120 -64 141 -307h-177q-35 238 -145 238h-17v-238h-170zM376 459q0 27 -15.5 42t-40.5 15h-82v-114h82q25 0 40.5 15t15.5 42zM296 872h132l-87 -147h-117z" />
    <glyph glyph-name="racute" unicode="&#x155;" horiz-adv-x="379" 
d="M214 504v-48q42 58 114 58q22 0 38 -3v-172q-37 16 -80 16q-29 0 -49.5 -18t-22.5 -49v-288h-163v504h163zM203 696h132l-87 -147h-117z" />
    <glyph glyph-name="Rcommaaccent" unicode="&#x156;" horiz-adv-x="603" 
d="M68 0v680h253q104 0 167 -53t63 -149q0 -68 -32.5 -111.5t-82.5 -59.5q120 -64 141 -307h-177q-35 238 -145 238h-17v-238h-170zM376 459q0 27 -15.5 42t-40.5 15h-82v-114h82q25 0 40.5 15t15.5 42zM340 -215h-125l23 155h150z" />
    <glyph glyph-name="rcommaaccent" unicode="&#x157;" horiz-adv-x="379" 
d="M214 504v-48q42 58 114 58q22 0 38 -3v-172q-37 16 -80 16q-29 0 -49.5 -18t-22.5 -49v-288h-163v504h163zM159 -215h-125l23 155h150z" />
    <glyph glyph-name="Rcaron" unicode="&#x158;" horiz-adv-x="603" 
d="M68 0v680h253q104 0 167 -53t63 -149q0 -68 -32.5 -111.5t-82.5 -59.5q120 -64 141 -307h-177q-35 238 -145 238h-17v-238h-170zM376 459q0 27 -15.5 42t-40.5 15h-82v-114h82q25 0 40.5 15t15.5 42zM378 725h-168l-82 147h117l49 -84l49 84h117z" />
    <glyph glyph-name="rcaron" unicode="&#x159;" horiz-adv-x="379" 
d="M214 504v-48q42 58 114 58q22 0 38 -3v-172q-37 16 -80 16q-29 0 -49.5 -18t-22.5 -49v-288h-163v504h163zM288 549h-168l-82 147h117l49 -84l49 84h117z" />
    <glyph glyph-name="Sacute" unicode="&#x15a;" horiz-adv-x="498" 
d="M431 663v-177q-28 18 -69.5 32t-76.5 14q-66 0 -66 -43q0 -24 44 -49l77 -44q127 -73 127 -194q0 -91 -60 -152t-177 -61q-94 0 -174 32v185q30 -23 77 -40.5t90 -17.5q63 0 63 44q0 24 -45 49l-81 46q-68 39 -95.5 85.5t-27.5 110.5q0 39 13 74.5t40.5 66.5t78 49
t117.5 18q77 0 145 -28zM292 872h132l-87 -147h-117z" />
    <glyph glyph-name="sacute" unicode="&#x15b;" horiz-adv-x="396" 
d="M342 500v-157q-57 31 -108 31q-34 0 -34 -23q0 -12 22 -26l65 -37q81 -49 81 -139q0 -70 -49.5 -115t-141.5 -45q-73 0 -131 22v160q17 -15 55 -29.5t64 -14.5q35 0 35 25q0 17 -25 31l-71 41q-72 41 -72 133q0 71 52 114t143 43q62 0 115 -14zM229 696h132l-87 -147
h-117z" />
    <glyph glyph-name="Scircumflex" unicode="&#x15c;" horiz-adv-x="498" 
d="M431 663v-177q-28 18 -69.5 32t-76.5 14q-66 0 -66 -43q0 -24 44 -49l77 -44q127 -73 127 -194q0 -91 -60 -152t-177 -61q-94 0 -174 32v185q30 -23 77 -40.5t90 -17.5q63 0 63 44q0 24 -45 49l-81 46q-68 39 -95.5 85.5t-27.5 110.5q0 39 13 74.5t40.5 66.5t78 49
t117.5 18q77 0 145 -28zM186 872h168l82 -147h-117l-49 84l-49 -84h-117z" />
    <glyph glyph-name="scircumflex" unicode="&#x15d;" horiz-adv-x="396" 
d="M342 500v-157q-57 31 -108 31q-34 0 -34 -23q0 -12 22 -26l65 -37q81 -49 81 -139q0 -70 -49.5 -115t-141.5 -45q-73 0 -131 22v160q17 -15 55 -29.5t64 -14.5q35 0 35 25q0 17 -25 31l-71 41q-72 41 -72 133q0 71 52 114t143 43q62 0 115 -14zM127 696h168l82 -147h-117
l-49 84l-49 -84h-117z" />
    <glyph glyph-name="Scedilla" unicode="&#x15e;" horiz-adv-x="498" 
d="M253 -152h-160l68 146q-57 7 -105 27v185q30 -23 77 -40.5t90 -17.5q63 0 63 44q0 24 -45 49l-81 46q-68 39 -95.5 85.5t-27.5 110.5q0 39 13 74.5t40.5 66.5t78 49t117.5 18q77 0 145 -28v-177q-28 18 -69.5 32t-76.5 14q-66 0 -66 -43q0 -24 44 -49l77 -44
q127 -73 127 -194q0 -74 -40.5 -129.5t-120.5 -74.5z" />
    <glyph glyph-name="scedilla" unicode="&#x15f;" horiz-adv-x="396" 
d="M210 -152h-160l68 145q-42 6 -72 18v160q17 -15 55 -29.5t64 -14.5q35 0 35 25q0 17 -25 31l-71 41q-72 41 -72 133q0 71 52 114t143 43q62 0 115 -14v-157q-57 31 -108 31q-34 0 -34 -23q0 -12 22 -26l65 -37q81 -49 81 -139q0 -50 -26.5 -89t-76.5 -57z" />
    <glyph glyph-name="Scaron" unicode="&#x160;" horiz-adv-x="498" 
d="M431 663v-177q-28 18 -69.5 32t-76.5 14q-66 0 -66 -43q0 -24 44 -49l77 -44q127 -73 127 -194q0 -91 -60 -152t-177 -61q-94 0 -174 32v185q30 -23 77 -40.5t90 -17.5q63 0 63 44q0 24 -45 49l-81 46q-68 39 -95.5 85.5t-27.5 110.5q0 39 13 74.5t40.5 66.5t78 49
t117.5 18q77 0 145 -28zM351 725h-168l-82 147h117l49 -84l49 84h117z" />
    <glyph glyph-name="scaron" unicode="&#x161;" horiz-adv-x="396" 
d="M342 500v-157q-57 31 -108 31q-34 0 -34 -23q0 -12 22 -26l65 -37q81 -49 81 -139q0 -70 -49.5 -115t-141.5 -45q-73 0 -131 22v160q17 -15 55 -29.5t64 -14.5q35 0 35 25q0 17 -25 31l-71 41q-72 41 -72 133q0 71 52 114t143 43q62 0 115 -14zM294 549h-168l-82 147h117
l49 -84l49 84h117z" />
    <glyph glyph-name="Tcommaaccent" unicode="&#x162;" horiz-adv-x="526" 
d="M178 0v516h-157v164h484v-164h-157v-516h-16l-54 -152h-160l71 152h-11z" />
    <glyph glyph-name="tcommaaccent" unicode="&#x163;" horiz-adv-x="343" 
d="M185 -152h-160l71 152h-7v365h-68v139h78v103l153 33v-136h78v-139h-78v-365h-13z" />
    <glyph glyph-name="Tcaron" unicode="&#x164;" horiz-adv-x="526" 
d="M178 0v516h-157v164h484v-164h-157v-516h-170zM347 725h-168l-82 147h117l49 -84l49 84h117z" />
    <glyph glyph-name="tcaron" unicode="&#x165;" horiz-adv-x="343" 
d="M252 0h-163v365h-68v139h78v103l153 33v-136h78v-139h-78v-365zM414 526h-125l23 155h150z" />
    <glyph glyph-name="Tbar" unicode="&#x166;" horiz-adv-x="530" 
d="M113 383h67v133h-157v164h484v-164h-157v-133h68v-105h-68v-278h-170v278h-67v105z" />
    <glyph glyph-name="tbar" unicode="&#x167;" horiz-adv-x="348" 
d="M24 273h66v92h-68v139h78v103l153 33v-136h78v-139h-78v-92h76v-105h-76v-168h-163v168h-66v105z" />
    <glyph glyph-name="Utilde" unicode="&#x168;" horiz-adv-x="654" 
d="M423 680h170v-418q0 -129 -71.5 -201t-194.5 -72t-194.5 72t-71.5 201v418h170v-432q0 -42 26 -68t70 -26t70 26t26 68v432zM480 844v-107q-43 25 -78 25q-26 0 -75.5 -21t-80.5 -21q-43 0 -72 21v107q28 -25 72 -25q23 0 70 21t86 21q40 0 78 -21z" />
    <glyph glyph-name="utilde" unicode="&#x169;" horiz-adv-x="559" 
d="M343 0v55q-43 -66 -123 -66q-76 0 -123.5 52t-47.5 132v331h163v-282q0 -34 17.5 -54t47.5 -20q29 0 46.5 18t19.5 49v289h163v-504h-163zM430 668v-107q-43 25 -78 25q-26 0 -75.5 -21t-80.5 -21q-43 0 -72 21v107q28 -25 72 -25q23 0 70 21t86 21q40 0 78 -21z" />
    <glyph glyph-name="Umacron" unicode="&#x16a;" horiz-adv-x="654" 
d="M423 680h170v-418q0 -129 -71.5 -201t-194.5 -72t-194.5 72t-71.5 201v418h170v-432q0 -42 26 -68t70 -26t70 26t26 68v432zM174 852h305v-105h-305v105z" />
    <glyph glyph-name="umacron" unicode="&#x16b;" horiz-adv-x="559" 
d="M343 0v55q-43 -66 -123 -66q-76 0 -123.5 52t-47.5 132v331h163v-282q0 -34 17.5 -54t47.5 -20q29 0 46.5 18t19.5 49v289h163v-504h-163zM124 676h305v-105h-305v105z" />
    <glyph glyph-name="Ubreve" unicode="&#x16c;" horiz-adv-x="654" 
d="M423 680h170v-418q0 -129 -71.5 -201t-194.5 -72t-194.5 72t-71.5 201v418h170v-432q0 -42 26 -68t70 -26t70 26t26 68v432zM399 875h85q0 -68 -41.5 -112t-118.5 -44q-74 0 -114.5 44t-40.5 112h82q5 -27 25.5 -44.5t47.5 -17.5q29 0 49.5 17.5t25.5 44.5z" />
    <glyph glyph-name="ubreve" unicode="&#x16d;" horiz-adv-x="559" 
d="M343 0v55q-43 -66 -123 -66q-76 0 -123.5 52t-47.5 132v331h163v-282q0 -34 17.5 -54t47.5 -20q29 0 46.5 18t19.5 49v289h163v-504h-163zM349 699h85q0 -68 -41.5 -112t-118.5 -44q-74 0 -114.5 44t-40.5 112h82q5 -27 25.5 -44.5t47.5 -17.5q29 0 49.5 17.5t25.5 44.5z
" />
    <glyph glyph-name="Uring" unicode="&#x16e;" horiz-adv-x="654" 
d="M423 680h170v-418q0 -129 -71.5 -201t-194.5 -72t-194.5 72t-71.5 201v418h170v-432q0 -42 26 -68t70 -26t70 26t26 68v432zM215 818q0 42 28.5 72.5t80.5 30.5q54 0 84 -30.5t30 -72.5q0 -40 -30 -70t-84 -30q-51 0 -80 30t-29 70zM287 818q0 -14 9.5 -24.5t27.5 -10.5
q20 0 30 10.5t10 24.5q0 15 -10 26.5t-30 11.5q-18 0 -27.5 -11.5t-9.5 -26.5z" />
    <glyph glyph-name="uring" unicode="&#x16f;" horiz-adv-x="559" 
d="M343 0v55q-43 -66 -123 -66q-76 0 -123.5 52t-47.5 132v331h163v-282q0 -34 17.5 -54t47.5 -20q29 0 46.5 18t19.5 49v289h163v-504h-163zM165 642q0 42 28.5 72.5t80.5 30.5q54 0 84 -30.5t30 -72.5q0 -40 -30 -70t-84 -30q-51 0 -80 30t-29 70zM237 642
q0 -14 9.5 -24.5t27.5 -10.5q20 0 30 10.5t10 24.5q0 15 -10 26.5t-30 11.5q-18 0 -27.5 -11.5t-9.5 -26.5z" />
    <glyph glyph-name="Uhungarumlaut" unicode="&#x170;" horiz-adv-x="654" 
d="M423 680h170v-418q0 -129 -71.5 -201t-194.5 -72t-194.5 72t-71.5 201v418h170v-432q0 -42 26 -68t70 -26t70 26t26 68v432zM249 872h132l-87 -147h-117zM438 872h132l-87 -147h-117z" />
    <glyph glyph-name="uhungarumlaut" unicode="&#x171;" horiz-adv-x="559" 
d="M343 0v55q-43 -66 -123 -66q-76 0 -123.5 52t-47.5 132v331h163v-282q0 -34 17.5 -54t47.5 -20q29 0 46.5 18t19.5 49v289h163v-504h-163zM195 696h132l-87 -147h-117zM384 696h132l-87 -147h-117z" />
    <glyph glyph-name="Uogonek" unicode="&#x172;" horiz-adv-x="654" 
d="M423 680h170v-418q0 -105 -47.5 -172.5t-133.5 -89.5l-63 -49q-27 -21 -27 -34q0 -20 25 -20q30 0 61 27v-104q-36 -18 -87 -18q-63 0 -96.5 22.5t-33.5 64.5q0 51 58 86l28 18q-102 14 -159 84t-57 185v418h170v-432q0 -42 26 -68t70 -26t70 26t26 68v432z" />
    <glyph glyph-name="uogonek" unicode="&#x173;" horiz-adv-x="559" 
d="M343 0v55q-43 -66 -123 -66q-76 0 -123.5 52t-47.5 132v331h163v-282q0 -34 17.5 -54t47.5 -20q29 0 46.5 18t19.5 49v289h163v-504l-90 -51q-27 -15 -27 -32q0 -20 25 -20q30 0 61 27v-104q-36 -18 -87 -18q-63 0 -96.5 22.5t-33.5 64.5q0 56 58 84l56 27h-29z" />
    <glyph glyph-name="Wcircumflex" unicode="&#x174;" horiz-adv-x="954" 
d="M177 0l-175 680h190l94 -468l118 380l-23 88h170l118 -468l93 468h190l-175 -680h-190l-100 361l-120 -361h-190zM384 872h168l82 -147h-117l-49 84l-49 -84h-117z" />
    <glyph glyph-name="wcircumflex" unicode="&#x175;" horiz-adv-x="797" 
d="M3 504h169l75 -306l74 234l-25 72h161l97 -306l72 306h169l-147 -504h-170l-80 245l-78 -245h-171zM308 696h168l82 -147h-117l-49 84l-49 -84h-117z" />
    <glyph glyph-name="Ycircumflex" unicode="&#x176;" horiz-adv-x="576" 
d="M203 0v290l-215 390h190l110 -222l111 222h190l-216 -392v-288h-170zM205 872h168l82 -147h-117l-49 84l-49 -84h-117z" />
    <glyph glyph-name="ycircumflex" unicode="&#x177;" horiz-adv-x="536" 
d="M63 -205l116 243l-181 466h183l87 -260l96 260h183l-296 -709h-188zM189 696h168l82 -147h-117l-49 84l-49 -84h-117z" />
    <glyph glyph-name="Ydieresis" unicode="&#x178;" horiz-adv-x="576" 
d="M203 0v290l-215 390h190l110 -222l111 222h190l-216 -392v-288h-170zM95 821q0 35 24 59.5t60 24.5t59.5 -24.5t23.5 -59.5q0 -36 -23.5 -60t-59.5 -24t-60 24t-24 60zM316 821q0 35 24 59.5t59 24.5q36 0 60 -24.5t24 -59.5q0 -36 -23.5 -60t-60.5 -24q-35 0 -59 24
t-24 60z" />
    <glyph glyph-name="Zacute" unicode="&#x179;" horiz-adv-x="517" 
d="M475 536l-231 -372h231v-164h-438v144l223 372h-213v164h428v-144zM276 872h132l-87 -147h-117z" />
    <glyph glyph-name="zacute" unicode="&#x17a;" horiz-adv-x="427" 
d="M390 375l-164 -236h164v-139h-357v129l158 236h-147v139h346v-129zM232 696h132l-87 -147h-117z" />
    <glyph glyph-name="Zdotaccent" unicode="&#x17b;" horiz-adv-x="517" 
d="M475 536l-231 -372h231v-164h-438v144l223 372h-213v164h428v-144zM182 821q0 39 27 66t66 27q40 0 66.5 -27t26.5 -66q0 -40 -26.5 -66.5t-66.5 -26.5t-66.5 26.5t-26.5 66.5z" />
    <glyph glyph-name="zdotaccent" unicode="&#x17c;" horiz-adv-x="427" 
d="M390 375l-164 -236h164v-139h-357v129l158 236h-147v139h346v-129zM135 645q0 39 27 66t66 27q40 0 66.5 -27t26.5 -66q0 -40 -26.5 -66.5t-66.5 -26.5t-66.5 26.5t-26.5 66.5z" />
    <glyph glyph-name="Zcaron" unicode="&#x17d;" horiz-adv-x="517" 
d="M475 536l-231 -372h231v-164h-438v144l223 372h-213v164h428v-144zM350 725h-168l-82 147h117l49 -84l49 84h117z" />
    <glyph glyph-name="zcaron" unicode="&#x17e;" horiz-adv-x="427" 
d="M390 375l-164 -236h164v-139h-357v129l158 236h-147v139h346v-129zM306 549h-168l-82 147h117l49 -84l49 84h117z" />
    <glyph glyph-name="florin" unicode="&#x192;" 
d="M183 190v114h-105v109h105v97q0 93 53.5 141.5t146.5 48.5q25 0 48 -5v-162q-16 8 -42 8q-19 0 -31 -12t-12 -30v-86h105v-109h-105v-125q0 -93 -53.5 -141.5t-146.5 -48.5q-26 0 -48 5v162q16 -8 42 -8q19 0 31 12t12 30z" />
    <glyph glyph-name="AEacute" unicode="&#x1fc;" horiz-adv-x="934" 
d="M883 0h-398v123h-210l-81 -123h-209l470 680h428v-164h-228v-91h208v-164h-208v-97h228v-164zM366 287h119v181zM665 872h132l-87 -147h-117z" />
    <glyph glyph-name="aeacute" unicode="&#x1fd;" horiz-adv-x="822" 
d="M792 203h-312q9 -32 39 -50t74 -18q95 0 166 40v-153q-64 -33 -186 -33q-127 0 -186 72q-67 -72 -180 -72q-97 0 -142.5 46.5t-45.5 115.5q0 68 45 114t119 46q58 0 100 -26v13q0 72 -81 72q-65 0 -127 -35v152q69 27 147 27q121 0 177 -65q70 65 170 65q106 0 169 -68.5
t63 -167.5q0 -43 -9 -75zM179 151q0 -19 14.5 -32t36.5 -13t36.5 13t14.5 32t-14.5 32t-36.5 13t-36.5 -13t-14.5 -32zM568 380q-33 0 -58 -16.5t-31 -39.5h167q-2 25 -23.5 40.5t-54.5 15.5zM424 696h132l-87 -147h-117z" />
    <glyph glyph-name="Oslashacute" unicode="&#x1fe;" horiz-adv-x="756" 
d="M28 340q0 149 100.5 250t249.5 101q91 0 171 -43l49 68l78 -54l-51 -70q103 -101 103 -252q0 -149 -100.5 -250t-249.5 -101q-90 0 -166 39l-46 -63l-73 52l45 63q-110 102 -110 260zM203 340q0 -68 39 -116l204 282q-35 15 -68 15q-74 0 -124.5 -53t-50.5 -128zM553 340
q0 61 -34 107l-203 -277q30 -11 62 -11q74 0 124.5 53t50.5 128zM398 872h132l-87 -147h-117z" />
    <glyph glyph-name="oslashacute" unicode="&#x1ff;" horiz-adv-x="570" 
d="M23 252q0 111 75.5 186.5t186.5 75.5q62 0 118 -27l34 46l78 -54l-36 -49q68 -74 68 -178q0 -111 -75.5 -187t-186.5 -76q-60 0 -113 25l-36 -49l-73 52l35 48q-75 75 -75 187zM175 252q0 -33 15 -60l125 173q-20 4 -30 4q-47 0 -78.5 -34.5t-31.5 -82.5zM395 252
q0 26 -11 50l-121 -165q14 -2 22 -2q47 0 78.5 34.5t31.5 82.5zM306 696h132l-87 -147h-117z" />
    <glyph glyph-name="Scommaaccent" unicode="&#x218;" horiz-adv-x="498" 
d="M431 663v-177q-28 18 -69.5 32t-76.5 14q-66 0 -66 -43q0 -24 44 -49l77 -44q127 -73 127 -194q0 -91 -60 -152t-177 -61q-94 0 -174 32v185q30 -23 77 -40.5t90 -17.5q63 0 63 44q0 24 -45 49l-81 46q-68 39 -95.5 85.5t-27.5 110.5q0 39 13 74.5t40.5 66.5t78 49
t117.5 18q77 0 145 -28zM274 -215h-125l23 155h150z" />
    <glyph glyph-name="scommaaccent" unicode="&#x219;" horiz-adv-x="396" 
d="M342 500v-157q-57 31 -108 31q-34 0 -34 -23q0 -12 22 -26l65 -37q81 -49 81 -139q0 -70 -49.5 -115t-141.5 -45q-73 0 -131 22v160q17 -15 55 -29.5t64 -14.5q35 0 35 25q0 17 -25 31l-71 41q-72 41 -72 133q0 71 52 114t143 43q62 0 115 -14zM218 -215h-125l23 155h150
z" />
    <glyph glyph-name="uni021A" unicode="&#x21a;" horiz-adv-x="526" 
d="M178 0v516h-157v164h484v-164h-157v-516h-170zM287 -215h-125l23 155h150z" />
    <glyph glyph-name="uni021B" unicode="&#x21b;" horiz-adv-x="343" 
d="M252 0h-163v365h-68v139h78v103l153 33v-136h78v-139h-78v-365zM196 -215h-125l23 155h150z" />
    <glyph glyph-name="dotlessj" unicode="&#x237;" horiz-adv-x="265" 
d="M51 -17v521h163v-522q0 -96 -49.5 -146.5t-135.5 -50.5q-29 0 -46 5v163q15 -8 30 -8q38 0 38 38z" />
    <glyph glyph-name="circumflex" unicode="&#x2c6;" horiz-adv-x="580" 
d="M206 696h168l82 -147h-117l-49 84l-49 -84h-117z" />
    <glyph glyph-name="caron" unicode="&#x2c7;" horiz-adv-x="580" 
d="M374 549h-168l-82 147h117l49 -84l49 84h117z" />
    <glyph glyph-name="breve" unicode="&#x2d8;" horiz-adv-x="580" 
d="M362 699h85q0 -68 -41.5 -112t-118.5 -44q-74 0 -114.5 44t-40.5 112h82q5 -27 25.5 -44.5t47.5 -17.5q29 0 49.5 17.5t25.5 44.5z" />
    <glyph glyph-name="dotaccent" unicode="&#x2d9;" horiz-adv-x="580" 
d="M197 645q0 39 27 66t66 27q40 0 66.5 -27t26.5 -66q0 -40 -26.5 -66.5t-66.5 -26.5t-66.5 26.5t-26.5 66.5z" />
    <glyph glyph-name="ring" unicode="&#x2da;" horiz-adv-x="580" 
d="M178 642q0 42 28.5 72.5t80.5 30.5q54 0 84 -30.5t30 -72.5q0 -40 -30 -70t-84 -30q-51 0 -80 30t-29 70zM250 642q0 -14 9.5 -24.5t27.5 -10.5q20 0 30 10.5t10 24.5q0 15 -10 26.5t-30 11.5q-18 0 -27.5 -11.5t-9.5 -26.5z" />
    <glyph glyph-name="ogonek" unicode="&#x2db;" horiz-adv-x="580" 
d="M413 1l1 -1l-90 -51q-27 -15 -27 -32q0 -20 25 -20q30 0 61 27v-104q-36 -18 -87 -18q-63 0 -96.5 22.5t-33.5 64.5q0 56 58 84l124 59z" />
    <glyph glyph-name="tilde" unicode="&#x2dc;" horiz-adv-x="580" 
d="M443 668v-107q-43 25 -78 25q-26 0 -75.5 -21t-80.5 -21q-43 0 -72 21v107q28 -25 72 -25q23 0 70 21t86 21q40 0 78 -21z" />
    <glyph glyph-name="hungarumlaut" unicode="&#x2dd;" horiz-adv-x="580" 
d="M165 696h132l-87 -147h-117zM354 696h132l-87 -147h-117z" />
    <glyph glyph-name="pi" unicode="&#x3c0;" horiz-adv-x="642" 
d="M551 0h-163v365h-135v-365h-163v365h-68v139h607v-139h-78v-365z" />
    <glyph glyph-name="Wgrave" unicode="&#x1e80;" horiz-adv-x="954" 
d="M177 0l-175 680h190l94 -468l118 380l-23 88h170l118 -468l93 468h190l-175 -680h-190l-100 361l-120 -361h-190zM326 872h132l72 -147h-117z" />
    <glyph glyph-name="wgrave" unicode="&#x1e81;" horiz-adv-x="797" 
d="M3 504h169l75 -306l74 234l-25 72h161l97 -306l72 306h169l-147 -504h-170l-80 245l-78 -245h-171zM237 696h132l72 -147h-117z" />
    <glyph glyph-name="Wacute" unicode="&#x1e82;" horiz-adv-x="954" 
d="M177 0l-175 680h190l94 -468l118 380l-23 88h170l118 -468l93 468h190l-175 -680h-190l-100 361l-120 -361h-190zM468 872h132l-87 -147h-117z" />
    <glyph glyph-name="wacute" unicode="&#x1e83;" horiz-adv-x="797" 
d="M3 504h169l75 -306l74 234l-25 72h161l97 -306l72 306h169l-147 -504h-170l-80 245l-78 -245h-171zM401 696h132l-87 -147h-117z" />
    <glyph glyph-name="Wdieresis" unicode="&#x1e84;" horiz-adv-x="954" 
d="M177 0l-175 680h190l94 -468l118 380l-23 88h170l118 -468l93 468h190l-175 -680h-190l-100 361l-120 -361h-190zM274 821q0 35 24 59.5t60 24.5t59.5 -24.5t23.5 -59.5q0 -36 -23.5 -60t-59.5 -24t-60 24t-24 60zM495 821q0 35 24 59.5t59 24.5q36 0 60 -24.5t24 -59.5
q0 -36 -23.5 -60t-60.5 -24q-35 0 -59 24t-24 60z" />
    <glyph glyph-name="wdieresis" unicode="&#x1e85;" horiz-adv-x="797" 
d="M3 504h169l75 -306l74 234l-25 72h161l97 -306l72 306h169l-147 -504h-170l-80 245l-78 -245h-171zM198 645q0 35 24 59.5t60 24.5t59.5 -24.5t23.5 -59.5q0 -36 -23.5 -60t-59.5 -24t-60 24t-24 60zM419 645q0 35 24 59.5t59 24.5q36 0 60 -24.5t24 -59.5
q0 -36 -23.5 -60t-60.5 -24q-35 0 -59 24t-24 60z" />
    <glyph glyph-name="Ygrave" unicode="&#x1ef2;" horiz-adv-x="576" 
d="M203 0v290l-215 390h190l110 -222l111 222h190l-216 -392v-288h-170zM146 872h132l72 -147h-117z" />
    <glyph glyph-name="ygrave" unicode="&#x1ef3;" horiz-adv-x="536" 
d="M63 -205l116 243l-181 466h183l87 -260l96 260h183l-296 -709h-188zM128 696h132l72 -147h-117z" />
    <glyph glyph-name="endash" unicode="&#x2013;" horiz-adv-x="591" 
d="M48 348h495v-125h-495v125z" />
    <glyph glyph-name="emdash" unicode="&#x2014;" horiz-adv-x="731" 
d="M48 348h635v-125h-635v125z" />
    <glyph glyph-name="quoteleft" unicode="&#x2018;" horiz-adv-x="276" 
d="M89 680h150l-27 -297h-180z" />
    <glyph glyph-name="quoteright" unicode="&#x2019;" horiz-adv-x="271" 
d="M191 383h-150l27 297h180z" />
    <glyph glyph-name="quotesinglbase" unicode="&#x201a;" horiz-adv-x="275" 
d="M180 -108h-150l27 297h180z" />
    <glyph glyph-name="quotedblleft" unicode="&#x201c;" horiz-adv-x="516" 
d="M89 680h150l-27 -297h-180zM329 680h150l-27 -297h-180z" />
    <glyph glyph-name="quotedblright" unicode="&#x201d;" horiz-adv-x="511" 
d="M191 383h-150l27 297h180zM431 383h-150l27 297h180z" />
    <glyph glyph-name="quotedblbase" unicode="&#x201e;" horiz-adv-x="515" 
d="M180 -108h-150l27 297h180zM420 -108h-150l27 297h180z" />
    <glyph glyph-name="dagger" unicode="&#x2020;" horiz-adv-x="427" 
d="M267 229v-434h-105v434h-136v92h136v369h105v-369h134v-92h-134z" />
    <glyph glyph-name="daggerdbl" unicode="&#x2021;" horiz-adv-x="449" 
d="M275 124h139v-92h-139v-237h-105v237h-131v92h131v258h-135v92h135v216h105v-216h135v-92h-135v-258z" />
    <glyph glyph-name="bullet" unicode="&#x2022;" horiz-adv-x="401" 
d="M201 146q-64 0 -105 39.5t-41 98.5q0 60 41 99.5t105 39.5q63 0 104 -39.5t41 -99.5q0 -59 -41 -98.5t-104 -39.5z" />
    <glyph glyph-name="ellipsis" unicode="&#x2026;" horiz-adv-x="835" 
d="M31 97q0 47 30.5 77.5t76.5 30.5t77 -30.5t31 -77.5q0 -46 -30.5 -76.5t-77.5 -30.5q-46 0 -76.5 30t-30.5 77zM310 97q0 47 30.5 77.5t76.5 30.5q47 0 77.5 -30.5t30.5 -77.5q0 -46 -30.5 -76.5t-77.5 -30.5t-77 30t-30 77zM589 97q0 47 30.5 77.5t76.5 30.5t77 -30.5
t31 -77.5q0 -46 -30.5 -76.5t-77.5 -30.5q-46 0 -76.5 30t-30.5 77z" />
    <glyph glyph-name="perthousand" unicode="&#x2030;" horiz-adv-x="1292" 
d="M249 0l302 680h120l-303 -680h-119zM198 578q-24 0 -38 -13.5t-14 -36.5v-110q0 -23 14 -37t38 -14t38 14t14 37v110q0 23 -14 36.5t-38 13.5zM198 690q72 0 119.5 -45t47.5 -114v-116q0 -70 -47.5 -115t-119.5 -45t-119.5 45t-47.5 115v116q0 69 47.5 114t119.5 45z
M716 312q-24 0 -38 -13.5t-14 -36.5v-110q0 -23 14 -37t38 -14t38 14t14 37v110q0 23 -14 36.5t-38 13.5zM716 424q72 0 119.5 -45t47.5 -114v-116q0 -70 -47.5 -115t-119.5 -45t-119.5 45t-47.5 115v116q0 69 47.5 114t119.5 45zM1094 312q-24 0 -38 -13.5t-14 -36.5v-110
q0 -23 14 -37t38 -14t38 14t14 37v110q0 23 -14 36.5t-38 13.5zM1094 424q72 0 119.5 -45t47.5 -114v-116q0 -70 -47.5 -115t-119.5 -45t-119.5 45t-47.5 115v116q0 69 47.5 114t119.5 45z" />
    <glyph glyph-name="guilsinglleft" unicode="&#x2039;" horiz-adv-x="313" 
d="M28 284l165 235l83 -59l-91 -177l92 -176l-84 -58z" />
    <glyph glyph-name="guilsinglright" unicode="&#x203a;" horiz-adv-x="312" 
d="M285 283l-165 -235l-83 59l91 177l-92 176l84 58z" />
    <glyph glyph-name="fraction" unicode="&#x2044;" horiz-adv-x="220" 
d="M-101 0l302 680h120l-303 -680h-119z" />
    <glyph glyph-name="zerosuperior" unicode="&#x2070;" horiz-adv-x="386" 
d="M193 705q-24 0 -38 -13.5t-14 -36.5v-110q0 -23 14 -37t38 -14t38 14t14 37v110q0 23 -14 36.5t-38 13.5zM193 817q72 0 119.5 -45t47.5 -114v-116q0 -70 -47.5 -115t-119.5 -45t-119.5 45t-47.5 115v116q0 69 47.5 114t119.5 45z" />
    <glyph glyph-name="foursuperior" unicode="&#x2074;" horiz-adv-x="376" 
d="M355 463h-48v-74h-115v74h-180v97l180 251h115v-237h48v-111zM131 574h61v85z" />
    <glyph glyph-name="fivesuperior" unicode="&#x2075;" horiz-adv-x="325" 
d="M290 700h-120l-4 -27q63 -9 98.5 -46.5t35.5 -92.5q0 -75 -44.5 -113.5t-118.5 -38.5q-64 0 -105 19v137q45 -41 98 -41q21 0 36 11.5t15 25.5q0 9 -4 15.5t-9 10t-16 5t-17 1.5h-21h-8h-59l19 245h224v-111z" />
    <glyph glyph-name="sixsuperior" unicode="&#x2076;" horiz-adv-x="359" 
d="M300 811l-88 -132q59 -9 94 -50t35 -92q0 -66 -46.5 -110.5t-114.5 -44.5q-69 0 -115.5 44.5t-46.5 110.5q0 45 28 91l116 183h138zM225 537q0 17 -13 28t-32 11t-32.5 -11t-13.5 -28t13.5 -28.5t32.5 -11.5t32 11.5t13 28.5z" />
    <glyph glyph-name="sevensuperior" unicode="&#x2077;" horiz-adv-x="299" 
d="M279 713l-123 -324h-131l126 311h-131v111h259v-98z" />
    <glyph glyph-name="eightsuperior" unicode="&#x2078;" horiz-adv-x="341" 
d="M37 694q0 54 38 88.5t95 34.5q58 0 96 -34.5t38 -88.5q0 -49 -36 -78q52 -33 52 -96q0 -61 -43 -99.5t-107 -38.5t-106.5 38.5t-42.5 99.5q0 64 52 96q-36 28 -36 78zM129 521q0 -15 11.5 -26.5t29.5 -11.5t30 11.5t12 26.5q0 17 -11.5 28t-30.5 11q-18 0 -29.5 -11
t-11.5 -28zM144 692q0 -24 27 -24q12 0 19 7t7 17t-7 17t-19 7t-19.5 -7t-7.5 -17z" />
    <glyph glyph-name="ninesuperior" unicode="&#x2079;" horiz-adv-x="359" 
d="M59 389l88 131q-59 9 -94 50t-35 93q0 66 46.5 110.5t114.5 44.5q69 0 115.5 -44.5t46.5 -110.5q0 -45 -28 -91l-116 -183h-138zM134 663q0 -17 13 -28t32 -11t32.5 11t13.5 28t-13.5 28.5t-32.5 11.5t-32 -11.5t-13 -28.5z" />
    <glyph glyph-name="zeroinferior" unicode="&#x2080;" horiz-adv-x="386" 
d="M193 186q-24 0 -38 -13.5t-14 -36.5v-110q0 -23 14 -37t38 -14t38 14t14 37v110q0 23 -14 36.5t-38 13.5zM193 298q72 0 119.5 -45t47.5 -114v-116q0 -70 -47.5 -115t-119.5 -45t-119.5 45t-47.5 115v116q0 69 47.5 114t119.5 45z" />
    <glyph glyph-name="oneinferior" unicode="&#x2081;" horiz-adv-x="321" 
d="M21 -130v111h94v200h-74v111h189v-311h82v-111h-291z" />
    <glyph glyph-name="twoinferior" unicode="&#x2082;" horiz-adv-x="310" 
d="M27 -130v97l113 131q26 29 26 49q0 38 -39 38q-50 0 -92 -35v125q39 23 101 23q76 0 112.5 -38t36.5 -90q0 -63 -46 -116l-63 -73h100v-111h-249z" />
    <glyph glyph-name="threeinferior" unicode="&#x2083;" horiz-adv-x="306" 
d="M63 29v111h60q32 0 32 21q0 22 -35 22q-49 0 -84 -23v125q32 13 88 13q68 0 108.5 -34.5t40.5 -86.5q0 -63 -48 -91q60 -33 60 -98q0 -52 -44 -88.5t-111 -36.5q-57 0 -100 15v134q37 -34 92 -34q19 0 32 7.5t13 20.5q0 23 -44 23h-60z" />
    <glyph glyph-name="fourinferior" unicode="&#x2084;" horiz-adv-x="376" 
d="M355 -56h-48v-74h-115v74h-180v97l180 251h115v-237h48v-111zM131 55h61v85z" />
    <glyph glyph-name="fiveinferior" unicode="&#x2085;" horiz-adv-x="325" 
d="M290 181h-120l-4 -27q63 -9 98.5 -46.5t35.5 -92.5q0 -75 -44.5 -113.5t-118.5 -38.5q-64 0 -105 19v137q45 -41 98 -41q21 0 36 11.5t15 25.5q0 9 -4 15.5t-9 10t-16 5t-17 1.5h-21h-8h-59l19 245h224v-111z" />
    <glyph glyph-name="sixinferior" unicode="&#x2086;" horiz-adv-x="359" 
d="M300 292l-88 -132q59 -9 94 -50t35 -92q0 -66 -46.5 -110.5t-114.5 -44.5q-69 0 -115.5 44.5t-46.5 110.5q0 46 28 91l116 183h138zM225 18q0 17 -13 28t-32 11t-32.5 -11t-13.5 -28t13.5 -28.5t32.5 -11.5t32 11.5t13 28.5z" />
    <glyph glyph-name="seveninferior" unicode="&#x2087;" horiz-adv-x="299" 
d="M279 194l-123 -324h-131l126 311h-131v111h259v-98z" />
    <glyph glyph-name="eightinferior" unicode="&#x2088;" horiz-adv-x="341" 
d="M37 175q0 54 38 88.5t95 34.5q58 0 96 -34.5t38 -88.5q0 -49 -36 -78q52 -32 52 -96q0 -61 -43 -99.5t-107 -38.5t-106.5 38.5t-42.5 99.5q0 64 52 96q-36 28 -36 78zM129 2q0 -15 11.5 -26.5t29.5 -11.5t30 11.5t12 26.5q0 17 -11.5 28t-30.5 11q-18 0 -29.5 -11
t-11.5 -28zM144 173q0 -24 27 -24q12 0 19 7t7 17t-7 17t-19 7t-19.5 -7t-7.5 -17z" />
    <glyph glyph-name="nineinferior" unicode="&#x2089;" horiz-adv-x="359" 
d="M59 -130l88 131q-59 9 -94 50t-35 93q0 66 46.5 110.5t114.5 44.5q69 0 115.5 -44.5t46.5 -110.5q0 -46 -28 -91l-116 -183h-138zM134 144q0 -17 13 -28t32 -11t32.5 11t13.5 28t-13.5 28.5t-32.5 11.5t-32 -11.5t-13 -28.5z" />
    <glyph glyph-name="Euro" unicode="&#x20ac;" 
d="M34 459h41q10 106 84.5 169t185.5 63q37 0 84.5 -11t72.5 -29l-47 -160q-17 14 -50 24t-60 10q-80 0 -98 -66h197l-27 -109h-174v-38h162l-27 -109h-126q21 -48 88 -48q68 0 121 44l52 -149q-76 -61 -173 -61q-106 0 -177.5 58t-86.5 156h-70l27 109h40v38h-66z" />
    <glyph glyph-name="afii61289" unicode="&#x2113;" horiz-adv-x="380" 
d="M345 29q-47 -40 -116 -40q-54 0 -84 31.5t-30 93.5v101q-27 -27 -57 -46l-40 65q66 50 97 84v209q0 82 34 122.5t93 40.5q51 0 80 -34t29 -97q0 -72 -37.5 -137.5t-112.5 -137.5v-148q0 -56 43 -56q32 0 73 29zM263 542q0 24 -9.5 35t-22.5 11q-30 0 -30 -48v-141
q62 67 62 143z" />
    <glyph glyph-name="uni2117" unicode="&#x2117;" horiz-adv-x="822" 
d="M32 340q0 161 107.5 267t271.5 106t271.5 -106t107.5 -267q0 -160 -107.5 -266.5t-271.5 -106.5q-163 0 -271 106.5t-108 266.5zM129 340q0 -125 78.5 -202.5t203.5 -77.5t203.5 77.5t78.5 202.5t-78.5 202.5t-203.5 77.5t-203.5 -77.5t-78.5 -202.5zM295 141v408h161
q65 0 105.5 -36.5t40.5 -98.5t-40.5 -98.5t-105.5 -36.5h-46v-138h-115zM484 414q0 24 -30 24h-44v-48h44q30 0 30 24z" />
    <glyph glyph-name="trademark" unicode="&#x2122;" horiz-adv-x="845" 
d="M138 329v263h-87v88h267v-88h-89v-263h-91zM621 329h-79l-74 187v-187h-91v351h112l93 -234l91 234h112v-351h-91v188z" />
    <glyph glyph-name="Omega" unicode="&#x2126;" horiz-adv-x="788" 
d="M394 691q147 0 248.5 -95t101.5 -224q0 -71 -27 -126t-69 -82h90v-164h-304v164q63 12 99 59.5t36 119.5q0 75 -50 126.5t-125 51.5t-125 -51.5t-50 -126.5q0 -72 36 -119.5t99 -59.5v-164h-304v164h90q-42 27 -69 82t-27 126q0 129 101.5 224t248.5 95z" />
    <glyph glyph-name="estimated" unicode="&#x212e;" horiz-adv-x="723" 
d="M693 338h-511v-229q74 -74 183 -74q80 0 139 36.5t106 115.5l45 -27q-59 -92 -125 -131.5t-165 -39.5q-147 0 -237 99.5t-90 249.5q0 151 90 250.5t237 99.5q146 0 236.5 -98t91.5 -252zM182 384h369v184q-81 75 -187 75q-107 0 -182 -75v-184z" />
    <glyph glyph-name="onethird" unicode="&#x2153;" horiz-adv-x="885" 
d="M257 0l302 680h120l-303 -680h-119zM36 258v111h94v200h-74v111h189v-311h82v-111h-291zM633 159v111h60q32 0 32 21q0 22 -35 22q-49 0 -84 -23v125q32 13 88 13q68 0 108.5 -34.5t40.5 -86.5q0 -63 -48 -91q60 -33 60 -98q0 -52 -44 -88.5t-111 -36.5q-57 0 -100 15
v134q37 -34 92 -34q19 0 32 8t13 20q0 23 -44 23h-60z" />
    <glyph glyph-name="twothirds" unicode="&#x2154;" horiz-adv-x="852" 
d="M224 0l302 680h120l-303 -680h-119zM600 159v111h60q32 0 32 21q0 22 -35 22q-49 0 -84 -23v125q32 13 88 13q68 0 108.5 -34.5t40.5 -86.5q0 -63 -48 -91q60 -33 60 -98q0 -52 -44 -88.5t-111 -36.5q-57 0 -100 15v134q37 -34 92 -34q19 0 32 8t13 20q0 23 -44 23h-60z
M37 258v97l113 131q26 29 26 49q0 38 -39 38q-50 0 -92 -35v125q39 23 101 23q76 0 112.5 -38t36.5 -90q0 -63 -46 -116l-63 -73h100v-111h-249z" />
    <glyph glyph-name="oneeighth" unicode="&#x215b;" horiz-adv-x="889" 
d="M257 0l302 680h120l-303 -680h-119zM36 258v111h94v200h-74v111h189v-311h82v-111h-291zM576 304q0 54 38 88.5t95 34.5q58 0 96 -34.5t38 -88.5q0 -49 -36 -78q52 -33 52 -96q0 -61 -43 -99.5t-107 -38.5t-106.5 38.5t-42.5 99.5q0 64 52 96q-36 28 -36 78zM668 131
q0 -15 11.5 -26.5t29.5 -11.5t30 11.5t12 26.5q0 17 -11.5 28t-30.5 11q-18 0 -29.5 -11t-11.5 -28zM683 302q0 -24 27 -24q12 0 19 7t7 17t-7 17t-19 7t-19.5 -7t-7.5 -17z" />
    <glyph glyph-name="threeeighths" unicode="&#x215c;" horiz-adv-x="852" 
d="M220 0l302 680h120l-303 -680h-119zM72 417v111h60q32 0 32 21q0 22 -35 22q-49 0 -84 -23v125q32 13 88 13q68 0 108.5 -34.5t40.5 -86.5q0 -63 -48 -91q60 -33 60 -98q0 -52 -44 -88.5t-111 -36.5q-57 0 -100 15v134q37 -34 92 -34q19 0 32 8t13 20q0 23 -44 23h-60z
M539 304q0 54 38 88.5t95 34.5q58 0 96 -34.5t38 -88.5q0 -49 -36 -78q52 -33 52 -96q0 -61 -43 -99.5t-107 -38.5t-106.5 38.5t-42.5 99.5q0 64 52 96q-36 28 -36 78zM631 131q0 -15 11.5 -26.5t29.5 -11.5t30 11.5t12 26.5q0 17 -11.5 28t-30.5 11q-18 0 -29.5 -11
t-11.5 -28zM646 302q0 -24 27 -24q12 0 19 7t7 17t-7 17t-19 7t-19.5 -7t-7.5 -17z" />
    <glyph glyph-name="fiveeighths" unicode="&#x215d;" horiz-adv-x="837" 
d="M205 0l302 680h120l-303 -680h-119zM524 304q0 54 38 88.5t95 34.5q58 0 96 -34.5t38 -88.5q0 -49 -36 -78q52 -33 52 -96q0 -61 -43 -99.5t-107 -38.5t-106.5 38.5t-42.5 99.5q0 64 52 96q-36 28 -36 78zM616 131q0 -15 11.5 -26.5t29.5 -11.5t30 11.5t12 26.5
q0 17 -11.5 28t-30.5 11q-18 0 -29.5 -11t-11.5 -28zM631 302q0 -24 27 -24q12 0 19 7t7 17t-7 17t-19 7t-19.5 -7t-7.5 -17zM293 569h-120l-4 -27q63 -9 98.5 -46.5t35.5 -92.5q0 -75 -44.5 -113.5t-118.5 -38.5q-64 0 -105 19v137q45 -41 98 -41q21 0 36 11.5t15 25.5
q0 9 -4 15.5t-9 10t-16 5t-17 1.5h-21h-8h-59l19 245h224v-111z" />
    <glyph glyph-name="seveneighths" unicode="&#x215e;" horiz-adv-x="815" 
d="M183 0l302 680h120l-303 -680h-119zM502 304q0 54 38 88.5t95 34.5q58 0 96 -34.5t38 -88.5q0 -49 -36 -78q52 -33 52 -96q0 -61 -43 -99.5t-107 -38.5t-106.5 38.5t-42.5 99.5q0 64 52 96q-36 28 -36 78zM594 131q0 -15 11.5 -26.5t29.5 -11.5t30 11.5t12 26.5
q0 17 -11.5 28t-30.5 11q-18 0 -29.5 -11t-11.5 -28zM609 302q0 -24 27 -24q12 0 19 7t7 17t-7 17t-19 7t-19.5 -7t-7.5 -17zM294 582l-123 -324h-131l126 311h-131v111h259v-98z" />
    <glyph glyph-name="arrowleft" unicode="&#x2190;" horiz-adv-x="750" 
d="M44 284l295 292l73 -74l-162 -162h425v-112h-425l162 -162l-73 -74z" />
    <glyph glyph-name="arrowup" unicode="&#x2191;" horiz-adv-x="750" 
d="M359 599l292 -295l-74 -73l-162 162v-425h-112v425l-162 -162l-74 73z" />
    <glyph glyph-name="arrowright" unicode="&#x2192;" horiz-adv-x="750" 
d="M674 283l-295 -292l-73 74l162 162h-425v112h425l-162 162l73 74z" />
    <glyph glyph-name="arrowdown" unicode="&#x2193;" horiz-adv-x="750" 
d="M358 -33l-292 295l74 73l162 -162v425h112v-425l162 162l74 -73z" />
    <glyph glyph-name="uni2196" unicode="&#x2196;" horiz-adv-x="750" 
d="M139 504h412v-103h-229l300 -300l-79 -80l-301 301v-230h-103v412z" />
    <glyph glyph-name="uni2197" unicode="&#x2197;" horiz-adv-x="750" 
d="M622 504v-412h-103v229l-300 -300l-80 79l301 301h-230v103h412z" />
    <glyph glyph-name="uni2198" unicode="&#x2198;" horiz-adv-x="750" 
d="M622 21h-412v103h229l-300 300l79 80l301 -301v230h103v-412z" />
    <glyph glyph-name="uni2199" unicode="&#x2199;" horiz-adv-x="750" 
d="M139 21v412h103v-229l300 300l80 -79l-301 -301h230v-103h-412z" />
    <glyph glyph-name="partialdiff" unicode="&#x2202;" horiz-adv-x="541" 
d="M23 237q0 96 57.5 161t143.5 81l-133 201h204l180 -296q43 -72 43 -147q0 -106 -71 -177t-177 -71q-105 0 -176 71t-71 177zM195 237q0 -33 21.5 -55.5t53.5 -22.5t54 23t22 55t-22 54.5t-54 22.5t-53.5 -22.5t-21.5 -54.5z" />
    <glyph glyph-name="Delta" unicode="&#x2206;" horiz-adv-x="730" 
d="M20 0l250 680h190l250 -680h-690zM365 458l-99 -294h199z" />
    <glyph glyph-name="product" unicode="&#x220f;" horiz-adv-x="756" 
d="M514 0v516h-272v-516h-170v680h612v-680h-170z" />
    <glyph glyph-name="summation" unicode="&#x2211;" horiz-adv-x="488" 
d="M444 0h-398v157l157 181l-157 185v157h398v-164h-178l107 -111v-124l-107 -117h178v-164z" />
    <glyph glyph-name="minus" unicode="&#x2212;" 
d="M31 223v125h457v-125h-457z" />
    <glyph glyph-name="uni2215" unicode="&#x2215;" horiz-adv-x="220" 
d="M-101 0l302 680h120l-303 -680h-119z" />
    <glyph glyph-name="uni2219" unicode="&#x2219;" horiz-adv-x="283" 
d="M34 306q0 47 30.5 77.5t76.5 30.5q47 0 77.5 -31t30.5 -77t-30.5 -76.5t-77.5 -30.5t-77 30.5t-30 76.5z" />
    <glyph glyph-name="radical" unicode="&#x221a;" horiz-adv-x="661" 
d="M173 -206l-181 490h190l86 -294l226 690h190l-321 -886h-190z" />
    <glyph glyph-name="infinity" unicode="&#x221e;" horiz-adv-x="776" 
d="M733 287q0 -77 -47.5 -126.5t-118.5 -49.5q-110 0 -178 98q-40 -49 -80.5 -73t-98.5 -24q-71 0 -119 48t-48 124q0 75 47.5 125t117.5 50q105 0 181 -103q72 105 177 105q70 0 118.5 -49t48.5 -125zM608 284q0 28 -16.5 46t-45.5 18q-45 0 -84 -65q44 -59 84 -59
q29 0 45.5 17t16.5 43zM315 283q-39 65 -85 65q-28 0 -45.5 -18.5t-17.5 -45.5q0 -29 17.5 -45t45.5 -16q24 0 47 17t38 43z" />
    <glyph glyph-name="integral" unicode="&#x222b;" 
d="M178 190v320q0 93 53.5 141.5t146.5 48.5q26 0 48 -5v-162q-16 8 -42 8q-19 0 -31 -12t-12 -30v-320q0 -93 -53.5 -141.5t-146.5 -48.5q-25 0 -48 5v162q16 -8 42 -8q19 0 31 12t12 30z" />
    <glyph glyph-name="approxequal" unicode="&#x2248;" 
d="M484 252v-123q-19 -14 -31.5 -21t-34 -13t-47.5 -6q-52 0 -121.5 31t-114.5 31q-9 0 -17 -1t-17 -3.5t-15 -4.5t-16 -7t-13.5 -6.5t-15 -8t-14.5 -7.5v123q69 40 121 40q46 0 115 -31t118 -31q44 0 103 38zM484 457v-123q-19 -14 -31.5 -21t-34 -13t-47.5 -6
q-52 0 -121.5 31t-114.5 31q-9 0 -17 -1t-17 -3.5t-15 -4.5t-16 -7t-13.5 -6.5t-15 -8t-14.5 -7.5v123q69 40 121 40q46 0 115 -31t118 -31q44 0 103 38z" />
    <glyph glyph-name="notequal" unicode="&#x2260;" 
d="M31 460h224l25 103l95 -22l-20 -81h133v-125h-163l-24 -100h187v-125h-217l-24 -102l-94 22l19 80h-141v125h171l24 100h-195v125z" />
    <glyph glyph-name="lessequal" unicode="&#x2264;" 
d="M34 37v125h457v-125h-457zM491 486v-125l-457 -172v128l297 106l-297 107v129z" />
    <glyph glyph-name="greaterequal" unicode="&#x2265;" 
d="M485 162v-125h-457v125h457zM28 361v125l457 173v-129l-297 -107l297 -106v-128z" />
    <glyph glyph-name="lozenge" unicode="&#x25ca;" horiz-adv-x="642" 
d="M613 340l-199 -340h-190l-195 341l195 339h190zM223 341l96 -175l96 174l-96 174z" />
    <glyph glyph-name="commaaccent" unicode="&#xf6c3;" horiz-adv-x="580" 
d="M328 -215h-125l23 155h150z" />
    <glyph glyph-name="commaaccent.alt" horiz-adv-x="608" 
d="M291 701h125l-23 -155h-150z" />
    <glyph glyph-name="zero.tf" 
d="M260 525q-80 0 -80 -89v-193q0 -42 20 -65t60 -23t60 23t20 65v193q0 89 -80 89zM260 691q110 0 180 -70t70 -180v-202q0 -110 -70 -180t-180 -70t-180 70t-70 180v202q0 110 70 180t180 70z" />
    <glyph glyph-name="one.tf" 
d="M46 0v164h147v352h-117v164h287v-516h127v-164h-444z" />
    <glyph glyph-name="two.tf" 
d="M53 0v144l189 220q48 54 48 90q0 31 -19.5 49t-53.5 18q-81 0 -151 -59v189q65 40 164 40q118 0 176.5 -60t58.5 -144q0 -106 -73 -189l-117 -134h178v-164h-400z" />
    <glyph glyph-name="three.tf" 
d="M119 266v164h93q25 0 41.5 12t16.5 32q0 21 -17 34t-45 13q-77 0 -133 -39v183q59 26 140 26q104 0 167 -55t63 -138q0 -105 -80 -149q99 -49 99 -160q0 -84 -68.5 -142t-173.5 -58q-88 0 -156 26v193q53 -49 146 -49q32 0 54.5 15.5t22.5 40.5q0 51 -76 51h-94z" />
    <glyph glyph-name="four.tf" 
d="M513 123h-76v-123h-170v123h-279v144l279 413h170v-393h76v-164zM166 287h101v154z" />
    <glyph glyph-name="five.tf" 
d="M455 516h-189l-8 -64q98 -8 154.5 -67t56.5 -154q0 -118 -68.5 -180t-180.5 -62q-94 0 -162 34v203q71 -67 152 -67q37 0 60.5 21t23.5 51q0 22 -9.5 35.5t-28.5 19.5t-36.5 7.5t-45.5 1.5h-91l30 385h342v-164z" />
    <glyph glyph-name="six.tf" 
d="M439 680l-134 -201q86 -16 144 -81t58 -161q0 -106 -71 -177t-176 -71q-106 0 -177 71t-71 177q0 75 43 147l180 296h204zM335 237q0 32 -21.5 54.5t-53.5 22.5t-54 -22.5t-22 -54.5t22 -55t54 -23t53.5 22.5t21.5 55.5z" />
    <glyph glyph-name="seven.tf" 
d="M466 536l-201 -536h-194l207 516h-216v164h404v-144z" />
    <glyph glyph-name="eight.tf" 
d="M55 495q0 85 58.5 140.5t145.5 55.5q88 0 147 -55.5t59 -140.5q0 -82 -59 -130q83 -50 83 -157q0 -96 -66 -157.5t-164 -61.5t-163 61.5t-65 157.5q0 107 82 158q-58 45 -58 129zM191 210q0 -30 19.5 -50.5t48.5 -20.5q30 0 50 20.5t20 50.5q0 31 -20 52t-50 21
q-29 0 -48.5 -21t-19.5 -52zM214 494q0 -21 12.5 -34.5t33.5 -13.5t33.5 13.5t12.5 34.5t-12.5 34t-33.5 13t-33.5 -13t-12.5 -34z" />
    <glyph glyph-name="nine.tf" 
d="M81 0l133 201q-86 15 -143.5 80t-57.5 162q0 106 71 177t176 71q106 0 177 -71t71 -177q0 -75 -43 -147l-180 -296h-204zM185 443q0 -32 21.5 -54.5t53.5 -22.5t54 22.5t22 54.5t-22 55t-54 23t-53.5 -22.5t-21.5 -55.5z" />
    <glyph glyph-name="zero.tosf" 
d="M260 405q-80 0 -80 -89v-83q0 -42 20 -65t60 -23t60 23t20 65v83q0 89 -80 89zM260 561q110 0 180 -70t70 -180v-72q0 -110 -70 -180t-180 -70t-180 70t-70 180v72q0 110 70 180t180 70z" />
    <glyph glyph-name="one.tosf" 
d="M55 0v139h137v279h-107v139h277v-418h117v-139h-424z" />
    <glyph glyph-name="two.tosf" 
d="M60 0v130l123 84q94 65 94 124q0 31 -19.5 50t-55.5 19q-62 0 -142 -68v185q62 43 163 43q118 0 176.5 -60t58.5 -144q0 -119 -115 -206l-24 -18h148v-139h-407z" />
    <glyph glyph-name="three.tosf" 
d="M121 156v139h89q23 0 40 16t17 41q0 24 -17.5 39.5t-44.5 15.5q-71 0 -126 -39v174q59 25 136 25q103 0 165 -55t62 -138q0 -102 -73 -149q91 -51 91 -160q0 -84 -67 -142t-170 -58q-85 0 -153 26v179q54 -45 139 -45q32 0 54 17.5t22 48.5q0 30 -20.5 47.5t-53.5 17.5
h-90z" />
    <glyph glyph-name="four.tosf" 
d="M488 0h-56v-123h-163v123h-256v124l230 433h189v-418h56v-139zM181 139h88v178z" />
    <glyph glyph-name="five.tosf" 
d="M459 418h-204l-13 -89q103 -5 163.5 -64t60.5 -157q0 -118 -69.5 -180t-182.5 -62q-88 0 -162 37v181q28 -27 72.5 -43t81.5 -16q47 0 71 23t24 60q0 42 -33 59t-101 17h-90l42 373h340v-139z" />
    <glyph glyph-name="six.tosf" 
d="M433 680l-139 -209q91 -11 152 -73t61 -161q0 -106 -71 -177t-176 -71q-106 0 -177 71t-71 177q0 75 43 147l190 296h188zM343 237q0 35 -24 60t-59 25t-59.5 -25t-24.5 -60t24.5 -60.5t59.5 -25.5t59 25t24 61z" />
    <glyph glyph-name="seven.tosf" 
d="M470 428l-212 -551h-182l224 541h-237v139h407v-129z" />
    <glyph glyph-name="eight.tosf" 
d="M47 495q0 85 61 140.5t151 55.5q91 0 152.5 -55.5t61.5 -140.5q0 -82 -65 -130q89 -50 89 -157q0 -96 -68 -157.5t-170 -61.5q-101 0 -169 61.5t-68 157.5q0 107 88 158q-63 45 -63 129zM175 210q0 -33 24 -55.5t60 -22.5t60.5 22.5t24.5 55.5q0 34 -24 57t-61 23
q-36 0 -60 -23t-24 -57zM200 494q0 -23 16.5 -38t43.5 -15q26 0 42.5 15t16.5 38t-16.5 37.5t-42.5 14.5q-27 0 -43.5 -14.5t-16.5 -37.5z" />
    <glyph glyph-name="nine.tosf" 
d="M86 -124l138 209q-90 10 -151 72.5t-61 161.5q0 106 71 177t176 71q106 0 177 -71t71 -177q0 -75 -43 -147l-190 -296h-188zM176 319q0 -35 24 -60t59 -25t59.5 25t24.5 60t-24.5 60.5t-59.5 25.5t-59 -25t-24 -61z" />
    <glyph glyph-name="zero.osf" horiz-adv-x="626" 
d="M27 275q0 121 82.5 203.5t203.5 82.5t203.5 -82.5t82.5 -203.5t-82.5 -204t-203.5 -83t-203.5 82.5t-82.5 204.5zM192 275q0 -52 35 -89.5t86 -37.5q52 0 86 37t34 90t-34 89.5t-86 36.5q-51 0 -86 -37t-35 -89z" />
    <glyph glyph-name="one.osf" horiz-adv-x="466" 
d="M28 0v139h137v279h-107v139h277v-418h117v-139h-424z" />
    <glyph glyph-name="two.osf" horiz-adv-x="485" 
d="M43 0v130l123 84q94 65 94 124q0 31 -19.5 50t-55.5 19q-62 0 -142 -68v185q62 43 163 43q118 0 176.5 -60t58.5 -144q0 -119 -115 -206l-24 -18h148v-139h-407z" />
    <glyph glyph-name="three.osf" horiz-adv-x="451" 
d="M87 156v139h89q23 0 40 16t17 41q0 24 -17.5 39.5t-44.5 15.5q-71 0 -126 -39v174q59 25 136 25q103 0 165 -55t62 -138q0 -102 -73 -149q91 -51 91 -160q0 -84 -67 -142t-170 -58q-85 0 -153 26v179q54 -45 139 -45q32 0 54 17.5t22 48.5q0 30 -20.5 47.5t-53.5 17.5
h-90z" />
    <glyph glyph-name="four.osf" horiz-adv-x="563" 
d="M532 0h-76v-123h-163v123h-286v124l279 433h170v-418h76v-139zM185 139h108v178z" />
    <glyph glyph-name="five.osf" horiz-adv-x="477" 
d="M438 418h-204l-13 -89q103 -5 163.5 -64t60.5 -157q0 -118 -69.5 -180t-182.5 -62q-88 0 -162 37v181q28 -27 72.5 -43t81.5 -16q47 0 71 23t24 60q0 42 -33 59t-101 17h-90l42 373h340v-139z" />
    <glyph glyph-name="six.osf" horiz-adv-x="550" 
d="M448 680l-139 -209q91 -11 152 -73t61 -161q0 -106 -71 -177t-176 -71q-106 0 -177 71t-71 177q0 75 43 147l190 296h188zM358 237q0 35 -24 60t-59 25t-59.5 -25t-24.5 -60t24.5 -60.5t59.5 -25.5t59 25t24 61z" />
    <glyph glyph-name="seven.osf" horiz-adv-x="431" 
d="M426 428l-212 -551h-182l224 541h-237v139h407v-129z" />
    <glyph glyph-name="eight.osf" horiz-adv-x="539" 
d="M57 495q0 85 61 140.5t151 55.5q91 0 152.5 -55.5t61.5 -140.5q0 -82 -65 -130q89 -50 89 -157q0 -96 -68 -157.5t-170 -61.5q-101 0 -169 61.5t-68 157.5q0 107 88 158q-63 45 -63 129zM185 210q0 -33 24 -55.5t60 -22.5t60.5 22.5t24.5 55.5q0 34 -24 57t-61 23
q-36 0 -60 -23t-24 -57zM210 494q0 -23 16.5 -38t43.5 -15q26 0 42.5 15t16.5 38t-16.5 37.5t-42.5 14.5q-27 0 -43.5 -14.5t-16.5 -37.5z" />
    <glyph glyph-name="nine.osf" horiz-adv-x="535" 
d="M94 -124l138 209q-90 10 -151 72.5t-61 161.5q0 106 71 177t176 71q106 0 177 -71t71 -177q0 -75 -43 -147l-190 -296h-188zM184 319q0 -35 24 -60t59 -25t59.5 25t24.5 60t-24.5 60.5t-59.5 25.5t-59 -25t-24 -61z" />
    <glyph glyph-name="zero.denom" horiz-adv-x="386" 
d="M193 316q-24 0 -38 -13.5t-14 -36.5v-110q0 -23 14 -37t38 -14t38 14t14 37v110q0 23 -14 36.5t-38 13.5zM193 428q72 0 119.5 -45t47.5 -114v-116q0 -70 -47.5 -115t-119.5 -45t-119.5 45t-47.5 115v116q0 69 47.5 114t119.5 45z" />
    <glyph glyph-name="one.denom" horiz-adv-x="321" 
d="M21 0v111h94v200h-74v111h189v-311h82v-111h-291z" />
    <glyph glyph-name="two.denom" horiz-adv-x="310" 
d="M27 0v97l113 131q26 29 26 49q0 38 -39 38q-50 0 -92 -35v125q39 23 101 23q76 0 112.5 -38t36.5 -90q0 -63 -46 -116l-63 -73h100v-111h-249z" />
    <glyph glyph-name="three.denom" horiz-adv-x="306" 
d="M63 159v111h60q32 0 32 21q0 22 -35 22q-49 0 -84 -23v125q32 13 88 13q68 0 108.5 -34.5t40.5 -86.5q0 -63 -48 -91q60 -33 60 -98q0 -52 -44 -88.5t-111 -36.5q-57 0 -100 15v134q37 -34 92 -34q19 0 32 8t13 20q0 23 -44 23h-60z" />
    <glyph glyph-name="four.denom" horiz-adv-x="375" 
d="M354 74h-48v-74h-115v74h-180v97l180 251h115v-237h48v-111zM130 185h61v85z" />
    <glyph glyph-name="five.denom" horiz-adv-x="324" 
d="M289 311h-120l-4 -27q63 -9 98.5 -46.5t35.5 -92.5q0 -75 -44.5 -113.5t-118.5 -38.5q-64 0 -105 19v137q45 -41 98 -41q21 0 36 11.5t15 25.5q0 9 -4 15.5t-9 10t-16 5t-17 1.5h-21h-8h-59l19 245h224v-111z" />
    <glyph glyph-name="six.denom" horiz-adv-x="359" 
d="M300 422l-88 -132q59 -9 94 -50t35 -92q0 -66 -46.5 -110.5t-114.5 -44.5q-69 0 -115.5 44.5t-46.5 110.5q0 46 28 91l116 183h138zM225 148q0 17 -13 28t-32 11t-32.5 -11t-13.5 -28t13.5 -28.5t32.5 -11.5t32 11.5t13 28.5z" />
    <glyph glyph-name="seven.denom" horiz-adv-x="298" 
d="M279 324l-123 -324h-131l126 311h-131v111h259v-98z" />
    <glyph glyph-name="eight.denom" horiz-adv-x="341" 
d="M37 305q0 54 38 88.5t95 34.5q58 0 96 -34.5t38 -88.5q0 -49 -36 -78q52 -32 52 -96q0 -61 -43 -99.5t-107 -38.5t-106.5 38.5t-42.5 99.5q0 64 52 96q-36 28 -36 78zM129 132q0 -15 11.5 -26.5t29.5 -11.5t30 11.5t12 26.5q0 17 -11.5 28t-30.5 11q-18 0 -29.5 -11
t-11.5 -28zM144 303q0 -24 27 -24q12 0 19 7t7 17t-7 17t-19 7t-19.5 -7t-7.5 -17z" />
    <glyph glyph-name="nine.denom" horiz-adv-x="359" 
d="M59 0l88 131q-59 9 -94 50t-35 93q0 66 46.5 110.5t114.5 44.5q69 0 115.5 -44.5t46.5 -110.5q0 -45 -28 -91l-116 -183h-138zM134 274q0 -17 13 -28t32 -11t32.5 11t13.5 28t-13.5 28.5t-32.5 11.5t-32 -11.5t-13 -28.5z" />
    <glyph glyph-name="zero.num" horiz-adv-x="386" 
d="M193 574q-24 0 -38 -13.5t-14 -36.5v-110q0 -23 14 -37t38 -14t38 14t14 37v110q0 23 -14 36.5t-38 13.5zM193 686q72 0 119.5 -45t47.5 -114v-116q0 -70 -47.5 -115t-119.5 -45t-119.5 45t-47.5 115v116q0 69 47.5 114t119.5 45z" />
    <glyph glyph-name="one.num" horiz-adv-x="321" 
d="M21 258v111h94v200h-74v111h189v-311h82v-111h-291z" />
    <glyph glyph-name="two.num" horiz-adv-x="310" 
d="M27 258v97l113 131q26 29 26 49q0 38 -39 38q-50 0 -92 -35v125q39 23 101 23q76 0 112.5 -38t36.5 -90q0 -63 -46 -116l-63 -73h100v-111h-249z" />
    <glyph glyph-name="three.num" horiz-adv-x="306" 
d="M63 417v111h60q32 0 32 21q0 22 -35 22q-49 0 -84 -23v125q32 13 88 13q68 0 108.5 -34.5t40.5 -86.5q0 -63 -48 -91q60 -33 60 -98q0 -52 -44 -88.5t-111 -36.5q-57 0 -100 15v134q37 -34 92 -34q19 0 32 8t13 20q0 23 -44 23h-60z" />
    <glyph glyph-name="four.num" horiz-adv-x="376" 
d="M355 332h-48v-74h-115v74h-180v97l180 251h115v-237h48v-111zM131 443h61v85z" />
    <glyph glyph-name="five.num" horiz-adv-x="323" 
d="M289 569h-120l-4 -27q63 -9 98.5 -46.5t35.5 -92.5q0 -75 -44.5 -113.5t-118.5 -38.5q-64 0 -105 19v137q45 -41 98 -41q21 0 36 11.5t15 25.5q0 9 -4 15.5t-9 10t-16 5t-17 1.5h-21h-8h-59l19 245h224v-111z" />
    <glyph glyph-name="six.num" horiz-adv-x="359" 
d="M300 680l-88 -132q59 -9 94 -50t35 -92q0 -66 -46.5 -110.5t-114.5 -44.5q-69 0 -115.5 44.5t-46.5 110.5q0 46 28 91l116 183h138zM225 406q0 17 -13 28t-32 11t-32.5 -11t-13.5 -28t13.5 -28.5t32.5 -11.5t32 11.5t13 28.5z" />
    <glyph glyph-name="seven.num" horiz-adv-x="300" 
d="M279 582l-123 -324h-131l126 311h-131v111h259v-98z" />
    <glyph glyph-name="eight.num" horiz-adv-x="341" 
d="M37 563q0 54 38 88.5t95 34.5q58 0 96 -34.5t38 -88.5q0 -49 -36 -78q52 -33 52 -96q0 -61 -43 -99.5t-107 -38.5t-106.5 38.5t-42.5 99.5q0 64 52 96q-36 28 -36 78zM129 390q0 -15 11.5 -26.5t29.5 -11.5t30 11.5t12 26.5q0 17 -11.5 28t-30.5 11q-18 0 -29.5 -11
t-11.5 -28zM144 561q0 -24 27 -24q12 0 19 7t7 17t-7 17t-19 7t-19.5 -7t-7.5 -17z" />
    <glyph glyph-name="nine.num" horiz-adv-x="359" 
d="M59 258l88 131q-59 9 -94 50t-35 93q0 66 46.5 110.5t114.5 44.5q69 0 115.5 -44.5t46.5 -110.5q0 -46 -28 -91l-116 -183h-138zM134 532q0 -17 13 -28t32 -11t32.5 11t13.5 28t-13.5 28.5t-32.5 11.5t-32 -11.5t-13 -28.5z" />
    <glyph glyph-name="parenleft.case" horiz-adv-x="286" 
d="M154 332q0 -228 113 -392l-89 -56q-67 84 -108.5 203t-41.5 245q0 127 41.5 246t108.5 203l89 -56q-113 -164 -113 -393z" />
    <glyph glyph-name="parenright.case" horiz-adv-x="286" 
d="M132 333q0 228 -113 392l89 56q67 -84 108.5 -203t41.5 -245q0 -127 -41.5 -246t-108.5 -203l-89 56q113 164 113 393z" />
    <glyph glyph-name="hyphen.case" horiz-adv-x="379" 
d="M328 264h-277v154h277v-154z" />
    <glyph glyph-name="bracketleft.case" horiz-adv-x="308" 
d="M68 780h218v-95h-113v-705h113v-95h-218v895z" />
    <glyph glyph-name="bracketright.case" horiz-adv-x="308" 
d="M240 -115h-218v95h113v705h-113v95h218v-895z" />
    <glyph glyph-name="braceleft.case" horiz-adv-x="337" 
d="M3 285v95h30q81 0 81 93v152q0 91 33.5 123t112.5 32h53v-95h-27q-36 0 -51.5 -15t-15.5 -54v-169q0 -94 -76 -115q76 -21 76 -115v-166q0 -40 15.5 -55.5t51.5 -15.5h27v-95h-51q-81 0 -114.5 32.5t-33.5 126.5v147q0 94 -81 94h-30z" />
    <glyph glyph-name="bar.case" horiz-adv-x="241" 
d="M173 780v-895h-105v895h105z" />
    <glyph glyph-name="braceright.case" horiz-adv-x="337" 
d="M334 380v-95h-30q-81 0 -81 -93v-152q0 -91 -33.5 -123t-112.5 -32h-53v95h27q36 0 51.5 15t15.5 54v169q0 94 76 115q-76 21 -76 115v166q0 40 -15.5 55.5t-51.5 15.5h-27v95h51q81 0 114.5 -32.5t33.5 -126.5v-147q0 -94 81 -94h30z" />
    <glyph glyph-name="guilsinglleft.case" horiz-adv-x="333" 
d="M36 340l165 235l83 -59l-91 -177l92 -176l-84 -58z" />
    <glyph glyph-name="guilsinglright.case" horiz-adv-x="330" 
d="M295 339l-165 -235l-83 59l91 177l-92 176l84 58z" />
    <glyph glyph-name="guillemotleft.case" horiz-adv-x="547" 
d="M36 340l165 235l83 -59l-91 -177l92 -176l-84 -58zM250 340l165 235l83 -59l-91 -177l92 -176l-84 -58z" />
    <glyph glyph-name="guillemotright.case" horiz-adv-x="545" 
d="M295 339l-165 -235l-83 59l91 177l-92 176l84 58zM510 339l-165 -235l-83 59l91 177l-92 176l84 58z" />
    <glyph glyph-name="endash.case" horiz-adv-x="601" 
d="M53 404h495v-125h-495v125z" />
    <glyph glyph-name="emdash.case" horiz-adv-x="741" 
d="M53 404h635v-125h-635v125z" />
    <glyph glyph-name="bullet.case" horiz-adv-x="399" 
d="M200 202q-64 0 -105 39.5t-41 98.5q0 60 41 99.5t105 39.5q63 0 104 -39.5t41 -99.5q0 -59 -41 -98.5t-104 -39.5z" />
    <glyph glyph-name="periodcentered.case" horiz-adv-x="292" 
d="M39 362q0 47 30.5 77.5t76.5 30.5t77 -31t31 -77t-30.5 -76.5t-77.5 -30.5q-46 0 -76.5 30.5t-30.5 76.5z" />
    <glyph glyph-name="a.alt" horiz-adv-x="600" 
d="M384 252q0 43 -27.5 73t-69.5 30q-41 0 -69 -30t-28 -73t28 -73.5t69 -30.5q42 0 69.5 30.5t27.5 73.5zM547 0h-163v48q-53 -59 -131 -59q-102 0 -165 75t-63 188t63 187.5t164 74.5q79 0 132 -59v49h163v-504z" />
    <glyph glyph-name="R.alt" horiz-adv-x="608" 
d="M68 0v680h263q104 0 167 -56t63 -157q0 -139 -119 -192l154 -275h-196l-128 254h-34v-254h-170zM386 462q0 54 -54 54h-94v-108h94q54 0 54 54z" />
    <glyph glyph-name="agrave.alt" horiz-adv-x="600" 
d="M384 252q0 43 -27.5 73t-69.5 30q-41 0 -69 -30t-28 -73t28 -73.5t69 -30.5q42 0 69.5 30.5t27.5 73.5zM547 0h-163v48q-53 -59 -131 -59q-102 0 -165 75t-63 188t63 187.5t164 74.5q79 0 132 -59v49h163v-504zM169 696h132l72 -147h-117z" />
    <glyph glyph-name="aacute.alt" horiz-adv-x="600" 
d="M384 252q0 43 -27.5 73t-69.5 30q-41 0 -69 -30t-28 -73t28 -73.5t69 -30.5q42 0 69.5 30.5t27.5 73.5zM547 0h-163v48q-53 -59 -131 -59q-102 0 -165 75t-63 188t63 187.5t164 74.5q79 0 132 -59v49h163v-504zM333 696h132l-87 -147h-117z" />
    <glyph glyph-name="acircumflex.alt" horiz-adv-x="600" 
d="M384 252q0 43 -27.5 73t-69.5 30q-41 0 -69 -30t-28 -73t28 -73.5t69 -30.5q42 0 69.5 30.5t27.5 73.5zM547 0h-163v48q-53 -59 -131 -59q-102 0 -165 75t-63 188t63 187.5t164 74.5q79 0 132 -59v49h163v-504zM214 696h168l82 -147h-117l-49 84l-49 -84h-117z" />
    <glyph glyph-name="atilde.alt" horiz-adv-x="600" 
d="M384 252q0 43 -27.5 73t-69.5 30q-41 0 -69 -30t-28 -73t28 -73.5t69 -30.5q42 0 69.5 30.5t27.5 73.5zM547 0h-163v48q-53 -59 -131 -59q-102 0 -165 75t-63 188t63 187.5t164 74.5q79 0 132 -59v49h163v-504zM451 668v-107q-43 25 -78 25q-26 0 -75.5 -21t-80.5 -21
q-43 0 -72 21v107q28 -25 72 -25q23 0 70 21t86 21q40 0 78 -21z" />
    <glyph glyph-name="adieresis.alt" horiz-adv-x="600" 
d="M384 252q0 43 -27.5 73t-69.5 30q-41 0 -69 -30t-28 -73t28 -73.5t69 -30.5q42 0 69.5 30.5t27.5 73.5zM547 0h-163v48q-53 -59 -131 -59q-102 0 -165 75t-63 188t63 187.5t164 74.5q79 0 132 -59v49h163v-504zM104 645q0 35 24 59.5t60 24.5t59.5 -24.5t23.5 -59.5
q0 -36 -23.5 -60t-59.5 -24t-60 24t-24 60zM325 645q0 35 24 59.5t59 24.5q36 0 60 -24.5t24 -59.5q0 -36 -23.5 -60t-60.5 -24q-35 0 -59 24t-24 60z" />
    <glyph glyph-name="amacron.alt" horiz-adv-x="600" 
d="M384 252q0 43 -27.5 73t-69.5 30q-41 0 -69 -30t-28 -73t28 -73.5t69 -30.5q42 0 69.5 30.5t27.5 73.5zM547 0h-163v48q-53 -59 -131 -59q-102 0 -165 75t-63 188t63 187.5t164 74.5q79 0 132 -59v49h163v-504zM146 676h305v-105h-305v105z" />
    <glyph glyph-name="abreve.alt" horiz-adv-x="600" 
d="M384 252q0 43 -27.5 73t-69.5 30q-41 0 -69 -30t-28 -73t28 -73.5t69 -30.5q42 0 69.5 30.5t27.5 73.5zM547 0h-163v48q-53 -59 -131 -59q-102 0 -165 75t-63 188t63 187.5t164 74.5q79 0 132 -59v49h163v-504zM371 699h85q0 -68 -41.5 -112t-118.5 -44q-74 0 -114.5 44
t-40.5 112h82q5 -27 25.5 -44.5t47.5 -17.5q29 0 49.5 17.5t25.5 44.5z" />
    <glyph glyph-name="aring.alt" horiz-adv-x="600" 
d="M384 252q0 43 -27.5 73t-69.5 30q-41 0 -69 -30t-28 -73t28 -73.5t69 -30.5q42 0 69.5 30.5t27.5 73.5zM547 0h-163v48q-53 -59 -131 -59q-102 0 -165 75t-63 188t63 187.5t164 74.5q79 0 132 -59v49h163v-504zM187 642q0 42 28.5 72.5t80.5 30.5q54 0 84 -30.5t30 -72.5
q0 -40 -30 -70t-84 -30q-51 0 -80 30t-29 70zM259 642q0 -14 9.5 -24.5t27.5 -10.5q20 0 30 10.5t10 24.5q0 15 -10 26.5t-30 11.5q-18 0 -27.5 -11.5t-9.5 -26.5z" />
    <glyph glyph-name="aogonek.alt" horiz-adv-x="600" 
d="M547 0l-90 -51q-27 -15 -27 -32q0 -20 25 -20q30 0 61 27v-104q-36 -18 -87 -18q-63 0 -96.5 22.5t-33.5 64.5q0 56 58 84l56 27h-29v48q-53 -59 -131 -59q-102 0 -165 75t-63 188t63 187.5t164 74.5q79 0 132 -59v49h163v-504zM384 252q0 43 -27.5 73t-69.5 30
q-41 0 -69 -30t-28 -73t28 -73.5t69 -30.5q42 0 69.5 30.5t27.5 73.5z" />
    <glyph glyph-name="Racute.alt" horiz-adv-x="608" 
d="M68 0v680h263q104 0 167 -56t63 -157q0 -139 -119 -192l154 -275h-196l-128 254h-34v-254h-170zM386 462q0 54 -54 54h-94v-108h94q54 0 54 54zM290 872h132l-87 -147h-117z" />
    <glyph glyph-name="Rcaron.alt" horiz-adv-x="608" 
d="M68 0v680h263q104 0 167 -56t63 -157q0 -139 -119 -192l154 -275h-196l-128 254h-34v-254h-170zM386 462q0 54 -54 54h-94v-108h94q54 0 54 54zM372 725h-168l-82 147h117l49 -84l49 84h117z" />
    <glyph glyph-name="Rcommaaccent.alt" horiz-adv-x="608" 
d="M68 0v680h263q104 0 167 -56t63 -157q0 -139 -119 -192l154 -275h-196l-128 254h-34v-254h-170zM386 462q0 54 -54 54h-94v-108h94q54 0 54 54zM334 -215h-125l23 155h150z" />
    </font>
</defs>
</svg>
